<?xml version="1.0" encoding="UTF-8"?>
<svg width="100px" height="19px" viewBox="0 0 100 19" version="1.1" xmlns="http://www.w3.org/2000/svg" xmlns:xlink="http://www.w3.org/1999/xlink">
    <!-- Generator: Sketch 55.2 (78181) - https://sketchapp.com -->
    <title>logo-e2m-cabecera</title>
    <desc>Created with Sketch.</desc>
    <defs>
        <polygon id="path-1" points="0.0162868217 0.0241461212 6.39426357 0.0241461212 6.39426357 13.557351 0.0162868217 13.557351"></polygon>
    </defs>
    <g id="Login-" stroke="none" stroke-width="1" fill="none" fill-rule="evenodd">
        <g id="E2M-Login" transform="translate(-65.000000, -15.000000)">
            <g id="Cabecera-Vodafone">
                <g id="logo-e2m-cabecera" transform="translate(65.000000, 15.000000)">
                    <g id="eat" transform="translate(0.000000, 1.520000)" fill="#2F302F" fill-rule="nonzero">
                        <path d="M1.81232558,6.61720484 L7.22914729,6.61720484 C7.19968992,6.03106637 7.0379845,5.52583909 6.74372093,5.09987637 C6.44937984,4.67473697 6.09286822,4.37766333 5.67379845,4.21045182 C5.25418605,4.0432403 4.89403101,3.95963454 4.59232558,3.95963454 C3.91573643,3.95963454 3.32899225,4.16329727 2.83294574,4.57152091 C2.33643411,4.97981939 1.99612403,5.6610903 1.81232558,6.61720484 M8.8817842e-15,8.01537458 C8.8817842e-15,6.81996939 0.231162791,5.78646151 0.693100775,4.91485091 C1.15550388,4.0432403 1.74325581,3.44026091 2.45713178,3.10576303 C3.17054264,2.77141484 3.88263566,2.60420333 4.59232558,2.60420333 C5.65945736,2.60420333 6.54837209,2.8727597 7.25860465,3.40994727 C7.96875969,3.9472097 8.45472868,4.6462197 8.71635659,5.50720182 C8.97744186,6.36818394 9.10829457,7.18994546 9.10829457,7.97263606 L1.65806202,7.97263606 C1.65806202,9.28188578 1.95,10.3100046 2.53496124,11.0571421 C3.11992248,11.8042049 3.97100775,12.1777737 5.08883721,12.1777737 C5.75116279,12.1777737 6.33790698,12.0675218 6.8496124,11.8469433 C7.36085271,11.6263649 7.8227907,11.3488267 8.23503876,11.0144784 L8.65503876,12.3912416 C8.32395349,12.7114433 7.81589147,12.9817961 7.13147287,13.2023746 C6.44705426,13.422953 5.75162791,13.5332049 5.04465116,13.5332049 C3.49984496,13.5332049 2.27286822,13.0618839 1.36372093,12.1190924 C0.454573643,11.1763009 8.8817842e-15,9.80837 8.8817842e-15,8.01537458" id="Fill-1"></path>
                        <path d="M12.4133643,10.3002368 C12.4133643,10.7725308 12.5533643,11.1691529 12.8342946,11.4911511 C13.1153023,11.8130744 13.3994109,12.007905 13.6877054,12.0754932 C13.9756124,12.1439796 14.2344496,12.1777362 14.4633643,12.1777362 C14.9653798,12.1777362 15.4236744,12.0701789 15.8372403,11.8558129 C16.2508062,11.6414468 16.6312713,11.3871117 16.9785581,11.0944541 L16.9785581,7.84453289 C16.0108837,7.87305014 15.1739845,7.97087711 14.4688682,8.13898683 C13.7632868,8.30709655 13.2442171,8.57744922 12.912124,8.94922169 C12.5796434,9.32099408 12.4133643,9.77188134 12.4133643,10.3002368 M10.7553023,10.2575732 C10.7553023,9.23649014 11.1403411,8.42977317 11.9104186,7.83749711 C12.6804961,7.24514621 13.5481705,6.87247561 14.5135969,6.7194853 C15.4789457,6.56559682 16.3005736,6.48910167 16.9785581,6.48910167 L16.9785581,6.36373046 C16.9785581,5.50634106 16.7938295,4.89176016 16.4245271,4.51908954 C16.0551473,4.14552076 15.5268527,3.95967197 14.8401085,3.95967197 C14.3532868,3.95967197 13.8627442,4.05038833 13.3685581,4.23092288 C12.8743721,4.41235561 12.3911938,4.68091197 11.9191783,5.03584349 L11.3811938,3.82801349 C11.7712713,3.52914349 12.2539845,3.25078197 12.8287907,2.99195591 C13.4035969,2.73312984 14.1220465,2.60416591 14.9842946,2.60416591 C16.1384806,2.60416591 17.036155,2.90123954 17.6763101,3.49531197 C18.3165426,4.08945924 18.6366202,5.08741409 18.6366202,6.48910167 L18.6366202,13.2877392 L17.1111938,13.2877392 L17.0453023,12.3876862 C16.6833643,12.7514499 16.2673953,13.0334041 15.7985581,13.2334741 C15.3297209,13.4327208 14.8138295,13.5332423 14.2528217,13.5332423 C13.8042946,13.5332423 13.371814,13.4629596 12.9563876,13.3241904 C12.5409612,13.1854962 12.1673953,12.9800371 11.8366977,12.7087862 C11.5055349,12.4374604 11.2425116,12.096825 11.0477054,11.686805 C10.8528992,11.2758868 10.7553023,10.7991768 10.7553023,10.2575732" id="Fill-3"></path>
                        <path d="M20.4494496,4.21576606 L20.4494496,2.86033484 L22.2291395,2.86033484 L22.2291395,7.10542736e-15 L23.865031,7.10542736e-15 L23.865031,2.86033484 L26.5732481,2.86033484 L26.5732481,4.21576606 L23.842938,4.21576606 L23.842938,10.9041518 C23.842938,11.4182112 23.9406124,11.7588467 24.1358837,11.9260582 C24.331155,12.0941679 24.5798372,12.1777737 24.8820078,12.1777737 C25.3683643,12.1777737 25.8658062,11.9847394 26.3742558,11.5996439 L26.8274341,12.8715442 C26.5695271,13.0493842 26.2563488,13.2041709 25.8878992,13.3358294 C25.5194496,13.467413 25.0957287,13.5332049 24.6167364,13.5332049 C23.8521628,13.5332049 23.2626279,13.3313384 22.8494496,12.9284291 C22.4358837,12.5255197 22.2291395,11.9074209 22.2291395,11.0722616 L22.2291395,4.21576606 L20.4494496,4.21576606 Z" id="Fill-5"></path>
                    </g>
                    <g id="meet" transform="translate(54.263566, 1.520000)">
                        <path d="M-1.77635684e-14,13.3118929 L-1.77635684e-14,2.88445103 L1.5144186,2.88445103 L1.63596899,3.71699073 C1.98232558,3.46789497 2.42635659,3.2241883 2.9679845,2.98587073 C3.5096124,2.7474783 4.10465116,2.62831951 4.75271318,2.62831951 C5.29806202,2.62831951 5.82302326,2.72255376 6.32790698,2.91109709 C6.83271318,3.09971527 7.25821705,3.44656316 7.60457364,3.95171558 C8.03937984,3.58885012 8.56434109,3.27755527 9.17976744,3.01783103 C9.79503876,2.75818163 10.4711628,2.62831951 11.2081395,2.62831951 C12.2555039,2.62831951 13.0503876,2.83819467 13.5920155,3.25801982 C14.1345736,3.67784497 14.4846512,4.234568 14.6421705,4.92833861 C14.7996899,5.62203437 14.8779845,6.31760133 14.8779845,7.01488982 L14.8779845,13.3118929 L13.219845,13.3118929 L13.219845,6.80142194 C13.219845,5.92621861 13.054031,5.2449477 12.7224806,4.75753437 C12.3908527,4.27019588 11.7865891,4.02641437 10.9096124,4.02641437 C10.3643411,4.02641437 9.82085271,4.15635133 9.27922481,4.41600073 C8.7375969,4.67572497 8.32302326,4.93013497 8.03565891,5.17915588 C8.16829457,5.62742346 8.23829457,6.23930982 8.24565891,7.01488982 L8.24565891,13.3118929 L6.5875969,13.3118929 L6.5875969,6.80142194 C6.5875969,6.20375679 6.50472868,5.68610467 6.33891473,5.24854042 C6.17310078,4.81090133 5.91705426,4.49788497 5.57062016,4.30926679 C5.22434109,4.12072346 4.84852713,4.02641437 4.44364341,4.02641437 C3.94248062,4.02641437 3.44697674,4.15275861 2.95697674,4.40537224 C2.46682171,4.65791103 2.03387597,4.91583891 1.65813953,5.17915588 L1.65813953,13.3118929 L-1.77635684e-14,13.3118929 Z" id="Fill-7" fill="#2F302F" fill-rule="nonzero"></path>
                        <path d="M18.7676434,7.67446214 L23.8318295,5.81964184 C23.5889612,5.28170579 23.2526822,4.86457518 22.8205891,4.5671273 C22.3897364,4.27027821 21.9473333,4.11459337 21.494,4.10179427 C21.0398915,4.08929458 20.6723721,4.13450306 20.3907442,4.23764427 C19.7576434,4.46952488 19.2839225,4.86090761 18.9705116,5.41224154 C18.6562481,5.96394973 18.587876,6.71774882 18.7676434,7.67446214 M17.5862481,9.60248425 C17.1471783,8.48484672 16.9836899,7.43936306 17.095938,6.46603337 C17.2081085,5.49277851 17.5360155,4.7276773 18.0807442,4.17050518 C18.6244651,3.6137073 19.2288062,3.21349246 19.8929147,2.97030973 C20.8902016,2.60504912 21.819969,2.551757 22.6812868,2.81080761 C23.5427597,3.06985821 24.2542326,3.55697216 24.8150853,4.27237397 C25.3750853,4.98807518 25.7992713,5.71163549 26.0867132,6.44342912 L19.1208992,8.99478939 C19.6017519,10.2188616 20.2523721,11.0802179 21.0737674,11.5784094 C21.8950853,12.0766758 22.8281085,12.1344588 23.8736899,11.751534 C24.4929147,11.5246682 25.0010543,11.2206337 25.398031,10.8393554 C25.7950078,10.4580024 26.1254729,10.0401982 26.3876434,9.58654158 L27.286093,10.7300019 C27.0944651,11.1426416 26.7184186,11.5695773 26.1595039,12.0101354 C25.6005891,12.4507686 24.9908217,12.7920776 24.3302791,13.0339879 C22.885938,13.563017 21.5655504,13.5424337 20.3691938,12.9723128 C19.1728372,12.4021919 18.2448527,11.2790154 17.5862481,9.60248425" id="Fill-9" fill="#2F302F" fill-rule="nonzero"></path>
                        <path d="M34.1594031,4.424511 C33.6597907,4.02092797 33.0709535,3.82272918 32.3939767,3.8290913 C32.0927364,3.83193554 31.7334341,3.91890949 31.3151395,4.09001312 C30.8976977,4.26119161 30.5441318,4.56155858 30.2546744,4.98939251 C29.9642093,5.41819949 29.8080078,5.92484888 29.7844419,6.51121191 L35.2005659,6.46046463 C35.0076202,5.50614646 34.6599457,4.82809403 34.1594031,4.424511 M35.8652171,11.9578613 C34.9655271,12.9091107 33.7433566,13.3920331 32.1987054,13.4064789 C31.4921938,13.4131404 30.7956047,13.3094004 30.1090155,13.095184 C29.4225039,12.8810426 28.9112636,12.6154801 28.5773876,12.2983471 L28.9835116,10.9176919 C29.3987054,11.2482228 29.8638217,11.5214198 30.3773101,11.7371331 C30.8907209,11.9529213 31.4785504,12.0577092 32.140876,12.0514968 C33.259093,12.041018 34.1063798,11.6595152 34.6838217,10.9069886 C35.261186,10.1544619 35.5428915,9.12357375 35.5297132,7.81447375 L28.0797907,7.88423255 C28.0719612,7.10161676 28.1944419,6.27858282 28.4465349,5.41528039 C28.6994031,4.55190312 29.1787054,3.84825251 29.8835116,3.30447827 C30.5883178,2.76062918 31.4744419,2.48368979 32.5411085,2.47373494 C33.2512636,2.46707342 33.964907,2.62754858 34.681186,2.95531009 C35.3983953,3.28299676 35.9921938,3.88051221 36.4633566,4.74770676 C36.9345194,5.61497616 37.1760698,6.64631342 37.1880853,7.84156889 C37.2061473,9.63456431 36.7648295,11.0066119 35.8652171,11.9578613" id="Fill-14" fill="#2F302F" fill-rule="nonzero"></path>
                        <g id="Group-13" transform="translate(38.560969, 0.000000)">
                            <g id="Fill-11-Clipped">
                                <mask id="mask-2" fill="white">
                                    <use xlink:href="#path-1"></use>
                                </mask>
                                <g id="path-1"></g>
                                <path d="M0.0162868217,4.23991218 L0.0162868217,2.88448097 L1.79589922,2.88448097 L1.79589922,0.0241461212 L3.43194574,0.0241461212 L3.43194574,2.88448097 L6.14008527,2.88448097 L6.14008527,4.23991218 L3.40977519,4.23991218 L3.40977519,10.9282979 C3.40977519,11.4423573 3.50744961,11.7829928 3.70272093,11.9502043 C3.89799225,12.118314 4.14667442,12.2019198 4.44884496,12.2019198 C4.93520155,12.2019198 5.43264341,12.0088856 5.94109302,11.6237901 L6.39427132,12.8956903 C6.13636434,13.0735303 5.82318605,13.228317 5.45473643,13.3599007 C5.0862093,13.4915591 4.66256589,13.557351 4.18357364,13.557351 C3.419,13.557351 2.82946512,13.3554846 2.41582171,12.9525752 C2.00225581,12.5496658 1.79589922,11.931567 1.79589922,11.0963328 L1.79589922,4.23991218 L0.0162868217,4.23991218 Z" id="Fill-11" fill="#2F302F" fill-rule="nonzero" mask="url(#mask-2)"></path>
                            </g>
                        </g>
                    </g>
                    <g id="2" transform="translate(29.457364, 0.000000)" fill="#FF0000" fill-rule="nonzero">
                        <path d="M15.3642974,1.11090266 C16.078207,1.11090266 16.7882948,1.18229659 17.4947858,1.32508447 C18.2011269,1.46816023 18.8554628,1.71077008 19.4579434,2.05363371 C20.0527057,2.40355038 20.5527496,2.88027766 20.9580752,3.48374356 C21.3632509,4.08735341 21.5660261,4.7782625 21.5660261,5.55668674 C21.5660261,6.34928901 21.3725429,7.06366023 20.9860261,7.69929658 C20.5993595,8.33486095 20.1159512,8.85620947 19.5359512,9.26312616 C18.9408891,9.67752764 18.2847548,9.99002011 17.5672483,10.2006754 C16.849592,10.4113307 16.115375,10.5166224 15.3642974,10.5166224 L6.34499767,10.5166224 C5.78725349,10.5166224 5.24247312,10.5934141 4.71080646,10.7469254 C4.17906486,10.9006526 3.7238323,11.1164898 3.34443436,11.3950125 C2.95034909,11.6736072 2.64738527,11.9879708 2.43539302,12.3377436 C2.22355064,12.6876602 2.11759199,13.0983913 2.11759199,13.5697928 L2.11759199,15.9141337 L20.1999537,15.9141337 C20.3038891,15.9141337 20.4174163,15.9375238 20.5400855,15.9838004 C20.6627548,16.0303648 20.7464576,16.0641186 20.7910442,16.0855655 C20.8802922,16.1498345 20.9584498,16.2339671 21.0251424,16.3372436 C21.0922845,16.4408799 21.136946,16.5176716 21.158977,16.5676905 C21.1888013,16.6676564 21.1998168,16.7802171 21.192623,16.9050845 C21.1851295,17.0301678 21.1739641,17.1139405 21.158977,17.1568345 C21.1218091,17.2569443 21.0623103,17.3550391 20.9806308,17.4514064 C20.8988013,17.5479178 20.8356308,17.6067891 20.7910442,17.6281641 C20.6125481,17.7497208 20.415468,17.8065769 20.1999537,17.7995958 L1.13608812,17.7995958 C0.994610078,17.7995958 0.853356845,17.7657701 0.712028682,17.6979026 C0.570775452,17.6300352 0.477930491,17.5745466 0.433268992,17.5317246 C0.239785788,17.3461867 0.143268992,17.1211375 0.143268992,16.8568648 L0.143268992,13.5697928 C0.143268992,12.7913686 0.334654005,12.0825391 0.717648837,11.4433042 C1.10056874,10.8041413 1.58585039,10.2773951 2.17334393,9.86306553 C2.76061266,9.45614884 3.41315013,9.14725489 4.13080646,8.93652764 C4.84831292,8.72587236 5.58650155,8.62043672 6.34499767,8.62043672 L15.3642974,8.62043672 C15.9220416,8.62043672 16.4647238,8.54198975 16.9927936,8.38487989 C17.5207884,8.22777011 17.9780442,8.00984581 18.3647109,7.73132314 C18.7513775,7.45992538 19.052468,7.14743296 19.2682819,6.79398977 C19.4838711,6.44040266 19.5917781,6.02808826 19.5917781,5.55668674 C19.5917781,5.0924822 19.4949615,4.71744811 19.3016281,4.43180038 C19.1082948,4.14629659 18.8221165,3.89620189 18.4428684,3.68194811 C18.0636204,3.46769432 17.6007444,3.30166023 17.0541657,3.18377387 C16.5076618,3.06595947 15.9443723,3.00694432 15.3642974,3.00694432 L3.15627157,3.00694432 C3.04454289,3.00694432 2.92921731,2.98571326 2.81044471,2.94281932 C2.69144729,2.89992538 2.60961783,2.86070189 2.56503126,2.82486099 C2.4757832,2.76771704 2.39575219,2.68747083 2.32523798,2.58383447 C2.25434909,2.48048599 2.21171085,2.40355038 2.19687364,2.35353144 C2.16712429,2.26083447 2.1542354,2.15187234 2.1578323,2.02671704 C2.16180388,1.90199356 2.17469277,1.81440644 2.19687364,1.76424356 C2.226623,1.66442159 2.28424832,1.56791023 2.36982455,1.47506932 C2.45510103,1.38237234 2.52036977,1.31817538 2.56503126,1.28233447 C2.74345246,1.16819053 2.94045762,1.11090266 3.15627157,1.11090266 L15.3642974,1.11090266 Z" id="Path"></path>
                        <path d="M2.22212688,4.05122462 C1.0774137,4.05122462 0.14933876,3.15995189 0.14933876,2.06039887 C0.14933876,0.960917803 1.0774137,0.0695731061 2.22212688,0.0695731061 C3.36698992,0.0695731061 4.29506486,0.960917803 4.29506486,2.06039887 C4.29506486,3.15995189 3.36698992,4.05122462 2.22212688,4.05122462 Z" id="Path"></path>
                        <path d="M19.6826822,18.8138919 C18.537894,18.8138919 17.6098191,17.9226191 17.6098191,16.8230661 C17.6098191,15.7235851 18.537894,14.8322404 19.6826822,14.8322404 C20.5279354,14.8322404 21.2550454,15.3181653 21.5776764,16.0150115 C21.6920081,16.2619549 21.7555452,16.5353859 21.7555452,16.8230661 C21.7555452,17.9226191 20.8274703,18.8138919 19.6826822,18.8138919 Z" id="Path"></path>
                    </g>
                </g>
            </g>
        </g>
    </g>
</svg>