<?xml version="1.0" encoding="UTF-8"?>
<svg width="116px" height="116px" viewBox="0 0 116 116" version="1.1" xmlns="http://www.w3.org/2000/svg" xmlns:xlink="http://www.w3.org/1999/xlink">
    <!-- Generator: Sketch 55.2 (78181) - https://sketchapp.com -->
    <title>plato-03-80px@</title>
    <desc>Created with Sketch.</desc>
    <defs>
        <circle id="path-1" cx="40" cy="40" r="40"></circle>
        <filter x="-36.2%" y="-31.2%" width="172.5%" height="172.5%" filterUnits="objectBoundingBox" id="filter-2">
            <feOffset dx="0" dy="4" in="SourceAlpha" result="shadowOffsetOuter1"></feOffset>
            <feGaussianBlur stdDeviation="9" in="shadowOffsetOuter1" result="shadowBlurOuter1"></feGaussianBlur>
            <feColorMatrix values="0 0 0 0 0   0 0 0 0 0   0 0 0 0 0  0 0 0 0.2 0" type="matrix" in="shadowBlurOuter1"></feColorMatrix>
        </filter>
    </defs>
    <g id="Pantallas" stroke="none" stroke-width="1" fill="none" fill-rule="evenodd">
        <g id="EWR-Login-Copy" transform="translate(-122.000000, -184.000000)">
            <g id="plato-03-80px" transform="translate(140.000000, 198.000000)">
                <g id="Oval">
                    <use fill="black" fill-opacity="1" filter="url(#filter-2)" xlink:href="#path-1"></use>
                    <use fill="#FFFFFF" fill-rule="evenodd" xlink:href="#path-1"></use>
                </g>
                <g id="Group-3" opacity="0.9" transform="translate(6.000000, 11.000000)">
                    <g id="Group" transform="translate(5.034483, 0.413793)" fill-rule="nonzero">
                        <circle id="Oval" fill="#FBEACC" cx="27.5862069" cy="28.5862069" r="27.5862069"></circle>
                        <g id="Group-5" transform="translate(32.482759, 0.379771)">
                            <path d="M12.6731034,2.54022933 C8.39965517,0.919194849 3.62103448,3.06936726 2,7.34281554 C2,7.34281554 2,7.34281554 2,7.34298795 L17.4758621,13.2133328 C19.0968966,8.9398845 16.9467241,4.16126381 12.6731034,2.54022933 C12.6731034,2.54022933 12.6731034,2.54022933 12.6731034,2.54022933 L12.6731034,2.54022933 Z" id="Path" fill="#FECB00"></path>
                            <path d="M18.542069,6.31540175 C16.3531034,1.45298795 10.6368966,-0.714253427 5.77448276,1.47471209 C3.44,2.52574657 1.61844828,4.46091899 0.710344828,6.85471209 L0.222068966,8.14298795 L18.2758621,14.9926431 L18.7641379,13.7016086 C19.6806897,11.30885 19.6006897,8.64867761 18.542069,6.31540175 Z M12.1848276,3.83264312 C13.4506897,4.31040175 14.5468966,5.15212588 15.3351724,6.25195347 L10.4303448,8.45885002 L8.22344828,3.55402243 C9.54206897,3.25298795 10.9203448,3.34850519 12.1848276,3.82850519 L12.1848276,3.83264312 Z M5.71448276,4.69885002 L7.11448276,7.81195347 L3.90758621,6.59540175 C4.38086207,5.85057416 4.99448276,5.20505692 5.71448276,4.69471209 L5.71448276,4.69885002 Z M16.5475862,11.3898845 L13.3406897,10.1733328 L16.4524138,8.77333278 C16.6522414,9.6298845 16.6844828,10.5169535 16.5475862,11.3857466 L16.5475862,11.3898845 Z" id="Shape" fill="#EB9700"></path>
                        </g>
                    </g>
                    <g id="Group" transform="translate(62.793103, 59.172414)" fill="#000000" fill-rule="nonzero">
                        <path d="M0.241724138,0.160862069 L0.241724138,0.172413793 L0.176551724,0.172413793 C0.17637931,0.169482759 0.176896552,0.166724138 0.177931034,0.163965517 C0.179655172,0.159655172 0.182241379,0.155172414 0.186034483,0.150862069 C0.189655172,0.146551724 0.195,0.141551724 0.201896552,0.135862069 C0.212758621,0.127068966 0.219827586,0.120172414 0.22362069,0.115 C0.227413793,0.109827586 0.229310345,0.105 0.229310345,0.100344828 C0.229310345,0.0956896552 0.227413793,0.0915517241 0.224137931,0.0882758621 C0.220689655,0.085 0.216206897,0.0834482759 0.210689655,0.0834482759 C0.205,0.0834482759 0.200172414,0.0851724138 0.196724138,0.0886206897 C0.193275862,0.0920689655 0.191551724,0.0970689655 0.19137931,0.103103448 L0.178965517,0.101896552 C0.179827586,0.0925862069 0.183103448,0.0855172414 0.188793103,0.0806896552 C0.194482759,0.075862069 0.201724138,0.0732758621 0.211206897,0.0732758621 C0.220689655,0.0732758621 0.228275862,0.0760344828 0.23362069,0.0812068966 C0.239137931,0.0863793103 0.242068966,0.0929310345 0.242068966,0.100689655 C0.242068966,0.104482759 0.241206897,0.10862069 0.239482759,0.112241379 C0.237931034,0.116034483 0.235344828,0.120172414 0.23137931,0.124310345 C0.227758621,0.128448276 0.22137931,0.134310345 0.212758621,0.141724138 C0.205517241,0.147758621 0.200862069,0.152068966 0.198793103,0.154137931 C0.196724138,0.156206897 0.195172414,0.158448276 0.193793103,0.160689655 L0.241724138,0.160689655 L0.241724138,0.160862069 Z" id="Path"></path>
                        <path d="M0.255,0.138386973 C0.255,0.123275862 0.256555556,0.111275862 0.259666667,0.101942529 C0.263,0.0928314176 0.267444444,0.0859425287 0.273666667,0.0808314176 C0.279888889,0.0757203065 0.287666667,0.0732758621 0.296777778,0.0732758621 C0.303666667,0.0732758621 0.309666667,0.0748314176 0.314777778,0.0774980843 C0.319888889,0.0803869732 0.324111111,0.084164751 0.327666667,0.0894980843 C0.331,0.0946091954 0.333444444,0.10105364 0.335444444,0.108386973 C0.337444444,0.115720307 0.338333333,0.125942529 0.338333333,0.138609195 C0.338333333,0.153498084 0.336777778,0.165498084 0.333666667,0.174609195 C0.330555556,0.183942529 0.326111111,0.190831418 0.319888889,0.195942529 C0.313666667,0.20105364 0.305888889,0.203498084 0.296777778,0.203498084 C0.284555556,0.203498084 0.274777778,0.19905364 0.267888889,0.190164751 C0.259,0.179275862 0.255,0.162164751 0.255,0.138386973 Z M0.271,0.138386973 C0.271,0.159275862 0.273444444,0.17305364 0.278333333,0.180164751 C0.283,0.18705364 0.289222222,0.190609195 0.296333333,0.190609195 C0.303444444,0.190609195 0.309666667,0.18705364 0.314555556,0.180164751 C0.319222222,0.173275862 0.321666667,0.159275862 0.321666667,0.138386973 C0.321666667,0.117275862 0.319222222,0.103498084 0.314555556,0.0966091954 C0.309666667,0.0899425287 0.303444444,0.0863869732 0.296111111,0.0863869732 C0.289,0.0863869732 0.283222222,0.0894980843 0.279,0.0954980843 C0.273666667,0.103275862 0.271,0.117498084 0.271,0.138386973 Z" id="Shape"></path>
                        <path d="M0.373275862,0.2288659 L0.373275862,0.101310345 L0.387498084,0.101310345 L0.387498084,0.113310345 C0.390831418,0.108643678 0.394609195,0.105310345 0.398831418,0.1028659 C0.40305364,0.100421456 0.408164751,0.0993103448 0.414164751,0.0993103448 C0.421942529,0.0993103448 0.428831418,0.101310345 0.43505364,0.105310345 C0.44105364,0.109310345 0.445498084,0.115088123 0.448831418,0.122421456 C0.451942529,0.129754789 0.453498084,0.137754789 0.453498084,0.146421456 C0.453498084,0.155977011 0.451720307,0.164421456 0.448386973,0.171977011 C0.44505364,0.179532567 0.440164751,0.185310345 0.433720307,0.189310345 C0.427498084,0.193310345 0.420386973,0.195310345 0.413498084,0.195310345 C0.408386973,0.195310345 0.403498084,0.194199234 0.399498084,0.191754789 C0.395275862,0.189532567 0.391942529,0.1868659 0.389275862,0.183532567 L0.389275862,0.228421456 L0.373275862,0.228421456 L0.373275862,0.2288659 Z M0.387498084,0.147977011 C0.387498084,0.159977011 0.389942529,0.168643678 0.394609195,0.174199234 C0.399498084,0.179754789 0.405275862,0.182643678 0.412164751,0.182643678 C0.41905364,0.182643678 0.42505364,0.179754789 0.429942529,0.173977011 C0.434831418,0.168199234 0.437275862,0.159088123 0.437275862,0.146643678 C0.437275862,0.1348659 0.434831418,0.125977011 0.430164751,0.120199234 C0.425498084,0.114421456 0.419498084,0.111532567 0.412831418,0.111532567 C0.406164751,0.111532567 0.400164751,0.114643678 0.395275862,0.1208659 C0.389942529,0.127088123 0.387498084,0.135977011 0.387498084,0.147977011 Z" id="Shape"></path>
                        <path d="M0.441896552,0.172413793 L0.467931034,0.135172414 L0.443793103,0.100862069 L0.458965517,0.100862069 L0.469827586,0.117758621 C0.471896552,0.121034483 0.473448276,0.12362069 0.474655172,0.125689655 C0.476724138,0.122758621 0.478448276,0.120172414 0.480172414,0.117931034 L0.492068966,0.100862069 L0.506551724,0.100862069 L0.481896552,0.134482759 L0.508448276,0.172413793 L0.493448276,0.172413793 L0.478793103,0.150172414 L0.475,0.144137931 L0.45637931,0.172413793 L0.441896552,0.172413793 Z" id="Path"></path>
                    </g>
                    <path d="M64.4689655,25.4882759 C59.9432759,21.527931 54.1337931,19.3448275 48.12,19.3448275 L31.9558621,19.3448275 C26.937931,19.3444828 21.9756897,20.3975862 17.3903448,22.4358621 L11.9310345,24.862069 C11.9310345,24.862069 8.84275862,19.3448275 5.03448276,19.3448275 L0.896551724,19.3448275 C0.896551724,24.6772414 5.21931034,29 10.5517241,29 C5.21931034,29 0.896551724,33.3227586 0.896551724,38.6551725 L5.03448276,38.6551725 C8.84275862,38.6551725 11.9310345,33.137931 11.9310345,33.137931 L17.3903448,35.5641379 C21.9756897,37.6024138 26.937931,38.6555172 31.9558621,38.6551725 L48.12,38.6551725 C54.1337931,38.6551725 59.9432759,36.472069 64.4689655,32.5117241 L68.4827586,29 L64.4689655,25.4882759 Z" id="Path" fill="#03A1B8" fill-rule="nonzero"></path>
                    <path d="M54.5227586,20.1944828 C53.632069,19.9605172 52.7291379,19.7762069 51.817931,19.6427586 L51.4731034,21.0675862 C50.2524138,26.2844828 50.2524138,31.7127586 51.4731034,36.9296552 L51.817931,38.3544828 C52.7291379,38.2210345 53.632069,38.0367241 54.5227586,37.8027586 L54.1531034,36.2855172 C53.0331034,31.4958621 53.0331034,26.5124138 54.1531034,21.7227586 L54.5227586,20.1944828 Z" id="Path" fill="#007C92" fill-rule="nonzero"></path>
                    <polygon id="Path" fill="#007C92" fill-rule="nonzero" points="40.8965517 19.3448276 46.4137931 19.3448276 46.4137931 38.6551724 40.8965517 38.6551724"></polygon>
                    <polygon id="Path" fill="#03A1B8" fill-rule="nonzero" points="35.3793103 19.3448276 40.8965517 19.3448276 40.8965517 38.6551724 35.3793103 38.6551724"></polygon>
                    <path d="M32.6206897,52.4482759 C27.8434483,52.462069 23.1927586,50.9118966 19.3793103,48.0344828 L21.0344828,45.8275862 C27.9003448,50.977069 37.3410345,50.977069 44.2068966,45.8275862 L45.862069,48.0344828 C42.0486207,50.9118966 37.397931,52.462069 32.6206897,52.4482759 Z" id="Path" fill="#FECB00" fill-rule="nonzero"></path>
                    <circle id="Oval" fill="#E90100" fill-rule="nonzero" cx="18.8275862" cy="5.55172414" r="4.13793103"></circle>
                    <circle id="Oval-Copy" fill="#E90100" fill-rule="nonzero" cx="53.137931" cy="44.137931" r="4.13793103"></circle>
                    <circle id="Oval" fill="#53B56D" fill-rule="nonzero" cx="12" cy="11" r="3"></circle>
                    <polygon id="Path" fill="#FECB00" fill-rule="nonzero" points="15.1008621 43.7691379 17.0515517 41.8184483 19.8098276 44.5767241 17.8591379 46.5274138"></polygon>
                    <path d="M36.7586207,5.55172414 C32.187931,5.55172414 28.4827586,9.25689655 28.4827586,13.8275862 L45.0344828,13.8275862 C45.0344828,9.25689655 41.3293103,5.55172414 36.7586207,5.55172414 Z" id="Path" fill="#53B56D" fill-rule="nonzero"></path>
                    <path d="M36.7586207,4.17241379 C31.4291379,4.17931034 27.1103448,8.49810345 27.1034483,13.8275862 L27.1034483,15.2068966 L46.4137931,15.2068966 L46.4137931,13.8275862 C46.4068966,8.49810345 42.0881034,4.17931034 36.7586207,4.17241379 Z M40.5434483,8.09241379 L36.7586207,11.8772414 L32.9737931,8.09241379 C35.2594828,6.5437931 38.2577586,6.5437931 40.5434483,8.09241379 Z M31.0193103,10.0386207 L33.4289655,12.4482759 L30,12.4482759 C30.1812069,11.5868966 30.5274138,10.7686207 31.0193103,10.0386207 Z M40.0882759,12.4482759 L42.497931,10.0386207 C42.9898276,10.7686207 43.3360345,11.5868966 43.5172414,12.4482759 L40.0882759,12.4482759 Z" id="Shape" fill="#438755" fill-rule="nonzero"></path>
                    <polygon id="Path" fill="#007C92" fill-rule="nonzero" points="35.3793103 38.6551724 31.3227586 38.6551724 29.862069 38.5944828 29.862069 19.4055172 31.5655172 19.3448276 35.3793103 19.3448276"></polygon>
                    <circle id="Oval" fill="#007C92" cx="58.5" cy="28.5" r="1.5"></circle>
                </g>
                <g id="Group" transform="translate(46.896552, 30.344828)"></g>
            </g>
        </g>
    </g>
</svg>