<?xml version="1.0" encoding="UTF-8"?>
<svg width="116px" height="116px" viewBox="0 0 116 116" version="1.1" xmlns="http://www.w3.org/2000/svg" xmlns:xlink="http://www.w3.org/1999/xlink">
    <!-- Generator: Sketch 55.2 (78181) - https://sketchapp.com -->
    <title>plato-02-80px</title>
    <desc>Created with Sketch.</desc>
    <defs>
        <circle id="path-1" cx="40" cy="40" r="40"></circle>
        <filter x="-36.2%" y="-31.2%" width="172.5%" height="172.5%" filterUnits="objectBoundingBox" id="filter-2">
            <feOffset dx="0" dy="4" in="SourceAlpha" result="shadowOffsetOuter1"></feOffset>
            <feGaussianBlur stdDeviation="9" in="shadowOffsetOuter1" result="shadowBlurOuter1"></feGaussianBlur>
            <feColorMatrix values="0 0 0 0 0   0 0 0 0 0   0 0 0 0 0  0 0 0 0.2 0" type="matrix" in="shadowBlurOuter1"></feColorMatrix>
        </filter>
    </defs>
    <g id="Pantallas" stroke="none" stroke-width="1" fill="none" fill-rule="evenodd">
        <g id="EWR-Login" transform="translate(-122.000000, -186.000000)">
            <g id="plato-02-80px" transform="translate(140.000000, 200.000000)">
                <g id="Oval">
                    <use fill="black" fill-opacity="1" filter="url(#filter-2)" xlink:href="#path-1"></use>
                    <use fill="#FFFFFF" fill-rule="evenodd" xlink:href="#path-1"></use>
                </g>
                <g id="Group-4" opacity="0.9" transform="translate(7.000000, 5.482759)">
                    <ellipse id="Oval-Copy-6" fill="#FECB00" cx="7.47887324" cy="51.9945141" rx="1.47887324" ry="1.47727273"></ellipse>
                    <ellipse id="Oval-Copy-12" fill="#FECB00" cx="64.4788732" cy="40.9945141" rx="1.47887324" ry="1.47727273"></ellipse>
                    <ellipse id="Oval-Copy-14" fill="#FECB00" cx="63.4788732" cy="22.9945141" rx="1.47887324" ry="1.47727273"></ellipse>
                    <ellipse id="Oval-Copy-11" fill="#FECB00" cx="1.47887324" cy="43.9945141" rx="1.47887324" ry="1.47727273"></ellipse>
                    <ellipse id="Oval-Copy-13" fill="#FECB00" cx="58.4788732" cy="32.9945141" rx="1.47887324" ry="1.47727273"></ellipse>
                    <g id="Group" transform="translate(9.310345, 0.000000)" fill="#438755" fill-rule="nonzero">
                        <path d="M4.58874744,11.7472447 L2.63310345,12.9558621 C2.41551724,13.0901724 2.16465517,13.1613799 1.90896552,13.1613799 C1.14724138,13.162069 0.529137931,12.545 0.528447917,11.7832759 C0.528103448,11.3044828 0.776034483,10.8598276 1.18344828,10.6082759 L3.16042028,9.38695708 L3.11448276,6.51586207 C3.10224138,5.75413793 3.70965517,5.12672414 4.47137931,5.11448276 C4.47189655,5.11448276 4.47258621,5.11448276 4.47310345,5.11448276 C5.22068966,5.08931034 5.84724138,5.675 5.87241379,6.42275862 C5.87293103,6.43913793 5.87327586,6.45551724 5.87310345,6.47172414 L5.89265079,7.69906041 L7.28629003,6.83810852 L7.19172414,3.89517241 C7.16775862,3.13431034 7.76465517,2.49793103 8.52551724,2.47310345 C9.26862069,2.4312069 9.905,2.99948276 9.94689655,3.74258621 C9.94810345,3.76396552 9.9487931,3.78534483 9.94896552,3.80689655 L9.99285268,5.16606875 L11.4340267,4.27575118 L11.3903448,1.45931034 C11.3781034,0.697586207 11.9855172,0.0701724138 12.7472414,0.0579309976 C12.7477586,0.0579309976 12.7484483,0.0579309976 12.7489655,0.0579309976 L12.7710345,0.0579309976 C13.5243103,0.0577586207 14.1382759,0.662068966 14.1503448,1.41517241 L14.1682832,2.58660291 L16.0689655,1.41241379 C16.6991379,0.984482759 17.5568966,1.14827586 17.985,1.77844828 C18.412931,2.40862069 18.2491379,3.26637931 17.6189655,3.69448276 C17.5860345,3.71689655 17.552069,3.73775862 17.5172414,3.75724138 L15.3602132,5.09031715 L16.3006897,5.65793103 C16.9527586,6.05172414 17.162069,6.89965517 16.7682759,7.55172414 C16.5182759,7.96568966 16.0698276,8.21844828 15.5862069,8.21793183 L15.5848276,8.21793183 C15.3337931,8.21810345 15.0875862,8.14948276 14.8731034,8.01931034 L12.7225963,6.72040402 L11.464126,7.49815755 L12.2206897,7.96137931 C12.8705172,8.35896552 13.075,9.20793103 12.6774138,9.85775862 C12.4267241,10.2674138 11.9810345,10.5172414 11.5006897,10.5172414 L11.5048276,10.5172414 C11.2512069,10.517069 11.0025862,10.4468966 10.7862069,10.3144828 L8.83596268,9.12240194 L7.2235144,10.1189192 L8.02344828,10.6027586 C8.67482759,10.9977586 8.88241379,11.8460345 8.48741379,12.4974138 C8.23758621,12.9093103 7.79086207,13.1610345 7.30896552,13.1613793 C7.05793103,13.1612069 6.81172414,13.0918966 6.59724138,12.9613793 L4.58874744,11.7472447 Z" id="Combined-Shape"></path>
                    </g>
                    <g id="Group-3" transform="translate(10.000000, 12.517241)" fill-rule="nonzero">
                        <path d="M-1.49213975e-13,22.6497278 L-1.49213975e-13,14.1560799 L15.5252606,5.66243194 L43.7530072,5.66243194 L43.7530072,12.906098 C43.7530072,15.3434211 42.1981877,17.5075318 39.8928629,18.2783303 L31.0505213,21.2341198 L43.7530072,25.4809437 L43.7530072,32.5589837 C43.7530072,35.6862387 41.2253889,38.2214156 38.1074579,38.2214156 L15.5252606,38.2214156 C6.95090617,38.2214156 -1.49213975e-13,31.2497232 -1.49213975e-13,22.6497278 Z" id="Path" fill="#BD0000"></path>
                        <path d="M38.4221973,31.1433757 L15.5252606,31.1433757 C6.95090617,31.1433757 -1.49213975e-13,24.1716833 -1.49213975e-13,15.5716878 C-1.49213975e-13,6.97169238 6.95090617,3.73034936e-14 15.5252606,3.73034936e-14 L38.1074579,3.73034936e-14 C41.2253889,3.73034936e-14 43.7530072,2.53517695 43.7530072,5.66243194 L43.7530072,6.22867514 C43.7530072,8.46604356 42.4393585,10.493725 40.4009623,11.4027223 L31.0505213,15.5716878 L41.0106816,21.1222868 C42.7032879,22.0652586 43.7530072,23.8545871 43.7530072,25.7966243 C43.7530072,28.7495826 41.3663512,31.1433757 38.4221973,31.1433757 L38.4221973,31.1433757 Z" id="Path" fill="#E60000"></path>
                        <g id="Group" transform="translate(9.456295, 6.901089)" fill="#BD0000">
                            <path d="M17.8153777,10.0862069 L13.7992559,10.0862069 L15.8484683,15.2234483 C16.1376263,15.9494782 15.7853087,16.7731851 15.0614435,17.0632078 C14.8947233,17.1300953 14.7168885,17.1642469 14.5372895,17.1642469 C13.9596792,17.1644238 13.4402887,16.8117604 13.2261107,16.2738294 L10.7584411,10.0862069 L6.74231923,10.0862069 L8.79153168,15.2234483 C9.08068966,15.9494782 8.72837209,16.7731851 8.00450682,17.0632078 C7.83778669,17.1300953 7.65995188,17.1642469 7.48035285,17.1642469 C6.90274258,17.1644238 6.38335204,16.8117604 6.16917402,16.2738294 L3.70150441,10.0862069 L1.83480353,10.0862069 C1.05536488,10.0862069 0.423416199,9.45236842 0.423416199,8.67059891 C0.423416199,7.8888294 1.05536488,7.25499093 1.83480353,7.25499093 L3.70150441,7.25499093 L6.16917402,1.06736842 C6.458332,0.340984574 7.27975942,-0.0125635209 8.00397755,0.277459165 C8.72819567,0.567481851 9.08068966,1.3913657 8.79153168,2.11774955 L6.74231923,7.25499093 L10.7584411,7.25499093 L13.2261107,1.06736842 C13.5152686,0.340984574 14.3366961,-0.0125635209 15.0609142,0.277459165 C15.7851323,0.567481851 16.1376263,1.3913657 15.8484683,2.11774955 L13.7992559,7.25499093 L17.8153777,7.25499093 L20.2830473,1.06736842 C20.5722053,0.340984574 21.3936327,-0.0125635209 22.1178508,0.277459165 C22.842069,0.567481851 23.194563,1.3913657 22.905405,2.11774955 L20.8561925,7.25499093 L21.5942261,7.25499093 C22.3736648,7.25499093 23.0056135,7.8888294 23.0056135,8.67059891 C23.0056135,9.45236842 22.3736648,10.0862069 21.5942261,10.0862069 L20.8561925,10.0862069 L22.905405,15.2234483 C23.194563,15.9494782 22.8422454,16.7731851 22.1183801,17.0632078 C21.95166,17.1300953 21.7738252,17.1642469 21.5942261,17.1642469 C21.0166159,17.1644238 20.4972253,16.8117604 20.2830473,16.2738294 L17.8153777,10.0862069 Z" id="Combined-Shape"></path>
                        </g>
                        <ellipse id="Oval" fill="#A8A8A8" cx="8.46832398" cy="15.5716878" rx="2.82277466" ry="2.83121597"></ellipse>
                    </g>
                    <g id="Group-5" transform="translate(30.000000, 63.017241) rotate(159.000000) translate(-30.000000, -63.017241) translate(20.000000, 55.517241)" fill-rule="nonzero">
                        <path d="M12.6731034,2.54022933 C8.39965517,0.919194849 3.62103448,3.06936726 2,7.34281554 C2,7.34281554 2,7.34281554 2,7.34298795 L17.4758621,13.2133328 C19.0968966,8.9398845 16.9467241,4.16126381 12.6731034,2.54022933 C12.6731034,2.54022933 12.6731034,2.54022933 12.6731034,2.54022933 L12.6731034,2.54022933 Z" id="Path" fill="#FECB00"></path>
                        <path d="M18.542069,6.31540175 C16.3531034,1.45298795 10.6368966,-0.714253427 5.77448276,1.47471209 C3.44,2.52574657 1.61844828,4.46091899 0.710344828,6.85471209 L0.222068966,8.14298795 L18.2758621,14.9926431 L18.7641379,13.7016086 C19.6806897,11.30885 19.6006897,8.64867761 18.542069,6.31540175 Z M12.1848276,3.83264312 C13.4506897,4.31040175 14.5468966,5.15212588 15.3351724,6.25195347 L10.4303448,8.45885002 L8.22344828,3.55402243 C9.54206897,3.25298795 10.9203448,3.34850519 12.1848276,3.82850519 L12.1848276,3.83264312 Z M5.71448276,4.69885002 L7.11448276,7.81195347 L3.90758621,6.59540175 C4.38086207,5.85057416 4.99448276,5.20505692 5.71448276,4.69471209 L5.71448276,4.69885002 Z M16.5475862,11.3898845 L13.3406897,10.1733328 L16.4524138,8.77333278 C16.6522414,9.6298845 16.6844828,10.5169535 16.5475862,11.3857466 L16.5475862,11.3898845 Z" id="Shape" fill="#EB9700"></path>
                    </g>
                    <g id="Group-5-Copy" transform="translate(44.000000, 60.017241) rotate(159.000000) translate(-44.000000, -60.017241) translate(34.000000, 52.517241)" fill-rule="nonzero">
                        <path d="M12.6731034,2.54022933 C8.39965517,0.919194849 3.62103448,3.06936726 2,7.34281554 C2,7.34281554 2,7.34281554 2,7.34298795 L17.4758621,13.2133328 C19.0968966,8.9398845 16.9467241,4.16126381 12.6731034,2.54022933 C12.6731034,2.54022933 12.6731034,2.54022933 12.6731034,2.54022933 L12.6731034,2.54022933 Z" id="Path" fill="#FECB00"></path>
                        <path d="M18.542069,6.31540175 C16.3531034,1.45298795 10.6368966,-0.714253427 5.77448276,1.47471209 C3.44,2.52574657 1.61844828,4.46091899 0.710344828,6.85471209 L0.222068966,8.14298795 L18.2758621,14.9926431 L18.7641379,13.7016086 C19.6806897,11.30885 19.6006897,8.64867761 18.542069,6.31540175 Z M12.1848276,3.83264312 C13.4506897,4.31040175 14.5468966,5.15212588 15.3351724,6.25195347 L10.4303448,8.45885002 L8.22344828,3.55402243 C9.54206897,3.25298795 10.9203448,3.34850519 12.1848276,3.82850519 L12.1848276,3.83264312 Z M5.71448276,4.69885002 L7.11448276,7.81195347 L3.90758621,6.59540175 C4.38086207,5.85057416 4.99448276,5.20505692 5.71448276,4.69471209 L5.71448276,4.69885002 Z M16.5475862,11.3898845 L13.3406897,10.1733328 L16.4524138,8.77333278 C16.6522414,9.6298845 16.6844828,10.5169535 16.5475862,11.3857466 L16.5475862,11.3898845 Z" id="Shape" fill="#EB9700"></path>
                    </g>
                </g>
            </g>
        </g>
    </g>
</svg>