<svg xmlns="http://www.w3.org/2000/svg" width="32" height="32" viewBox="0 0 32 32">
    <g fill="none" fill-rule="evenodd">
        <path fill="#D8D8D8" fill-opacity="0" d="M0 0h32v32H0z"/>
        <path fill="#F00" fill-rule="nonzero" d="M27.37 21.935l.082.192L18.88 7.293c-.733-1.263-1.757-1.96-2.88-1.96s-2.147.697-2.88 1.964L4.63 21.935c-.735 1.267-.833 2.463-.268 3.432.565.968 1.68 1.466 3.148 1.466h16.98c1.468 0 2.587-.5 3.148-1.466.562-.967.467-2.165-.268-3.432zM16 24.38a1.078 1.078 0 1 1 1.083-1.078 1.08 1.08 0 0 1-1.081 1.078H16zm1.075-13.518l-.353 8.848a.722.722 0 0 1-1.444 0l-.356-8.847a1.083 1.083 0 1 1 2.148 0l.005-.001z"/>
    </g>
</svg>
