<?xml version="1.0" encoding="UTF-8"?>
<svg width="65px" height="65px" viewBox="0 0 65 65" version="1.1" xmlns="http://www.w3.org/2000/svg" xmlns:xlink="http://www.w3.org/1999/xlink">
    <!-- Generator: Sketch 55.2 (78181) - https://sketchapp.com -->
    <title>clock@1x</title>
    <desc>Created with Sketch.</desc>
    <g id="Registro" stroke="none" stroke-width="1" fill="none" fill-rule="evenodd">
        <g id="E2M-Registro-3" transform="translate(-144.000000, -58.000000)" fill-rule="nonzero">
            <g id="Group-2" transform="translate(0.000000, 48.000000)">
                <g id="Group">
                    <g id="Overlays-/-Modal-/-Mobile-/-Example" transform="translate(16.000000, 0.000000)">
                        <g id="clock-2" transform="translate(128.000000, 10.000000)">
                            <g id="clock">
                                <circle id="Oval" fill="#E60000" cx="32.5" cy="32.5" r="32.5"></circle>
                                <circle id="Oval" fill="#F4F4F4" cx="32.5" cy="32.5" r="25.1136364"></circle>
                                <path d="M32.9767159,38.6260284 L23.3166227,46.3231511 C22.0031689,47.3739501 20.109643,47.2690808 18.9202591,46.079667 C17.7308453,44.8902831 17.6259761,42.9967572 18.676775,41.6833034 L29.6333227,27.9573864 L32.9767159,27.9573864 L32.9767159,38.6260284 Z" id="Path" fill="#AFAFAF"></path>
                                <path d="M32.5,13.2954545 C30.8179732,13.2954545 29.4049309,14.5601937 29.2191841,16.231933 L27.2434648,34.0134216 C27.0773298,35.5086079 27.5557925,37.0037924 28.5591011,38.1247539 C29.5624098,39.2457154 30.9956121,39.8863636 32.5,39.8863636 C34.0043879,39.8863636 35.4375902,39.2457154 36.4408989,38.1247539 C37.4442075,37.0037924 37.9226702,35.5086079 37.7565352,34.0134216 L35.7808159,16.231933 C35.5950691,14.5601937 34.1820268,13.2954545 32.5,13.2954545 L32.5,13.2954545 Z" id="Path" fill="#CCCCCC"></path>
                                <circle id="Oval" fill="#AFAFAF" cx="32.5" cy="32.5" r="1.47727273"></circle>
                            </g>
                        </g>
                    </g>
                </g>
            </g>
        </g>
    </g>
</svg>