<?xml version="1.0" encoding="UTF-8"?>
<svg width="65px" height="65px" viewBox="0 0 65 65" version="1.1" xmlns="http://www.w3.org/2000/svg" xmlns:xlink="http://www.w3.org/1999/xlink">
    <!-- Generator: Sketch 55.2 (78181) - https://sketchapp.com -->
    <title>lugar@1x</title>
    <desc>Created with Sketch.</desc>
    <g id="Info-de-mesa" stroke="none" stroke-width="1" fill="none" fill-rule="evenodd">
        <g id="1.-EstamosConfirmandoMesa" transform="translate(-27.000000, -647.000000)">
            <g id="Group-10-Copy-2" transform="translate(16.000000, 636.000000)">
                <g id="Group-6" transform="translate(11.000000, 11.000000)">
                    <g id="location-hi" transform="translate(2.000000, 0.000000)">
                        <rect id="Rectangle" fill="#EBEBEB" x="0" y="5" width="60" height="60" rx="6.70634921"></rect>
                        <path d="M53.3333333,64.1666667 L6.66666667,64.1666667 C2.98476833,64.1666667 0,61.1818983 0,57.5 L0,58.3333333 C0,62.0152317 2.98476833,65 6.66666667,65 L53.3333333,65 C57.0152317,65 60,62.0152317 60,58.3333333 L60,57.5 C60,61.1818983 57.0152317,64.1666667 53.3333333,64.1666667 Z" id="Path" fill="#000000" opacity="0.06"></path>
                        <path d="M60,13.4666667 L60,11.5791667 L48.475,5.47083333 L48.75,5 L43.125,5 L36.25,17.8541667 L22.9166667,10.9208333 L26.275,4.58333333 L25.2083333,4.87916667 L22.2625,10.4166667 L12.0833333,5 L7.29166667,5 L1.07916667,16.5875 L0,16.0125 L0,22.1791667 L0.208333333,21.7625 L12.7083333,28.4 L6.25,40.6208333 L0,37.2875 L0,39.175 L5.475,42.0916667 L0,52.425 L0,57.1125 L12.05,63.5 L11.25,65 L18.3333333,65 L17.2458333,64.3708333 L23.8833333,51.8708333 L36.3833333,58.5083333 L32.9166667,65 L36.6666667,65 L39.3333333,60.0625 L48.5541667,65 L52.1125,65 L40.125,58.5791667 L46.5958333,46.3791667 L59.0958333,53.0166667 L52.8208333,65 L53.3333333,65 C53.8255188,64.999081 54.3160611,64.9431788 54.7958333,64.8333333 L60,54.8958333 L60,47.8125 L48.2,41.5625 L54.6125,29.4791667 L60,32.3291667 L60,30.4458333 L55.3958333,28.0041667 L60,19.3166667 L60,15.7583333 L53.9208333,27.2208333 L40.6708333,20.1958333 L47.6958333,6.94166667 L60,13.4666667 Z M35.4708333,19.325 L29.0583333,31.4083333 L16.5583333,24.7708333 L22.9708333,12.6875 L35.4708333,19.325 Z M2.55416667,17.3666667 L8.96666667,5.28333333 L21.4666667,11.9208333 L15.0541667,24.0041667 L2.55416667,17.3666667 Z M14.2208333,29.2 L26.7166667,35.8333333 L20.2458333,48.0375 L7.74583333,41.4 L14.2208333,29.2 Z M12.85,62.025 L0.35,55.3875 L6.9875,42.8875 L19.4875,49.525 L12.85,62.025 Z M37.2,57.025 L24.7,50.3875 L31.1708333,38.1875 L43.6708333,44.825 L37.2,57.025 Z M53.1625,28.6916667 L46.75,40.775 L33.475,33.75 L39.8875,21.6666667 L53.1625,28.6916667 Z" id="Shape" fill="#000000" fill-rule="nonzero" opacity="0.06"></path>
                        <circle id="Oval" fill="#4A4D4E" cx="29.9416667" cy="34.8791667" r="4.16666667"></circle>
                        <path d="M30,0.133333333 C22.9875,0.133333333 17.8833333,5.75416667 17.8833333,12.6875 C17.8833333,22.3583333 30,35.55 30,35.55 C30,35.55 32.6916667,32.4375 33.5583333,31.3833333 C37.1583333,26.95 42.1125,19.375 42.1166692,12.9041667 C42.1208333,5.9625 37.0083333,0.133333333 30,0.133333333 Z M30,18.775 C26.396342,18.775 23.475,15.853658 23.475,12.25 C23.475,8.64634201 26.396342,5.725 30,5.725 C33.603658,5.725 36.525,8.64634201 36.525,12.25 C36.5226999,15.8520307 33.6020314,18.7708341 30,18.7708333 L30,18.775 Z" id="Shape" fill="#E60100" fill-rule="nonzero"></path>
                        <g id="Group" opacity="0.12" transform="translate(17.500000, 4.583333)" fill="#000000">
                            <path d="M12.5,1.14166667 C15.9406213,1.1415053 18.7885779,3.81613969 19.0041667,7.25 C19.0041667,7.1125 19.025,6.975 19.025,6.83333333 C19.025,3.22967534 16.103658,0.308333333 12.5,0.308333333 C8.89634201,0.308333333 5.975,3.22967534 5.975,6.83333333 C5.975,6.975 5.975,7.1125 5.99583333,7.25 C6.21343066,3.81708499 9.06019616,1.14356915 12.5,1.14166667 Z" id="Path"></path>
                            <path d="M16.0583333,25.9583333 C15.1958333,27.025 12.5,30.125 12.5,30.125 C12.5,30.125 0.65,17.2083333 0.395823668,7.575 C0.395823668,7.74583333 0.395823668,7.92083333 0.395823668,8.09583333 C0.383333333,17.775 12.5,30.9666667 12.5,30.9666667 C12.5,30.9666667 15.1916667,27.8541667 16.0583333,26.8 C19.6583333,22.3666667 24.6125,14.7916667 24.6166667,8.32083333 C24.6166667,8.175 24.6166667,8.02916667 24.6166667,7.90416667 C24.4041667,14.2541667 19.5833333,21.6125 16.0583333,25.9583333 Z" id="Path"></path>
                        </g>
                    </g>
                </g>
            </g>
        </g>
    </g>
</svg>