<?xml version="1.0" encoding="UTF-8"?>
<svg width="65px" height="65px" viewBox="0 0 65 65" version="1.1" xmlns="http://www.w3.org/2000/svg" xmlns:xlink="http://www.w3.org/1999/xlink">
    <!-- Generator: Sketch 55.2 (78181) - https://sketchapp.com -->
    <title>mano@1x</title>
    <desc>Created with Sketch.</desc>
    <g id="Info-de-mesa" stroke="none" stroke-width="1" fill="none" fill-rule="evenodd">
        <g id="1.-EstamosConfirmandoMesa" transform="translate(-27.000000, -181.000000)">
            <g id="Alien-2" transform="translate(27.000000, 181.000000)">
                <g id="Alien">
                    <g id="Analyst_Man">
                        <rect id="Rectangle" x="0" y="0" width="65" height="65"></rect>
                    </g>
                    <g id="finger" transform="translate(10.000000, 5.000000)" fill-rule="nonzero">
                        <path d="M37.4688638,20.8828271 L42.4717195,20.8828271 C44.0393032,20.8833044 45.3105869,22.156857 45.3134404,23.7301815 C45.3258061,29.853545 45.3158185,30.1074918 45.3048797,40.0901781 C45.3001237,45.672234 41.1224372,50.3244245 35.7519411,51.058579 L35.7519411,51.0638298 L19.7693414,51.0638298 L19.7693414,51.058579 C16.3331182,50.5812354 13.319705,48.5105189 11.6327452,45.4679309 L0,24.5072968 L1.2151626,23.5712261 C3.73632803,21.4098144 7.52021611,21.6833322 9.70655785,24.1860446 L12.9611011,27.9322371 L12.9791741,4.02161965 C12.9801252,1.80053999 14.7740954,0 16.9875463,0 L16.9884976,0 C18.0528944,0 19.0740116,0.424358414 19.8259381,1.18047065 C20.5778646,1.93658288 20.9997234,2.9619169 20.997821,4.0302119 C20.9930649,6.69903978 20.9845042,10.3354433 20.9773701,13.9074053 L26.3783046,13.9074053 C27.9477906,13.9083599 29.2200256,15.1857314 29.2200256,16.7609652 L29.2200256,17.4807993 L34.6271428,17.4807993 C36.1966289,17.4812767 37.4688638,18.7586481 37.4688638,20.333882 L37.4688638,20.8828271 Z" id="Path" fill="#F7CAA5"></path>
                        <polygon id="Path" fill="#8EC1D6" points="42.1276596 51.0638298 42.1276596 60 14.0425532 60 14.0425532 51.0638298"></polygon>
                        <path d="M19.1489362,3.19148936 L19.1489362,7.30377023 C17.7039066,7.77817588 16.1253825,7.77817588 14.6808511,7.30377023 L14.6808511,3.19148936 L19.1489362,3.19148936 Z" id="Path" fill="#EDB288"></path>
                    </g>
                </g>
            </g>
        </g>
    </g>
</svg>