<?xml version="1.0" encoding="UTF-8"?>
<svg width="172px" height="172px" viewBox="0 0 172 172" version="1.1" xmlns="http://www.w3.org/2000/svg" xmlns:xlink="http://www.w3.org/1999/xlink">
    <!-- Generator: Sketch 55.2 (78181) - https://sketchapp.com -->
    <title>plato-01-120px</title>
    <desc>Created with Sketch.</desc>
    <defs>
        <circle id="path-1" cx="60" cy="60" r="60"></circle>
        <filter x="-36.2%" y="-31.2%" width="172.5%" height="172.5%" filterUnits="objectBoundingBox" id="filter-2">
            <feOffset dx="0" dy="6" in="SourceAlpha" result="shadowOffsetOuter1"></feOffset>
            <feGaussianBlur stdDeviation="13.5" in="shadowOffsetOuter1" result="shadowBlurOuter1"></feGaussianBlur>
            <feColorMatrix values="0 0 0 0 0   0 0 0 0 0   0 0 0 0 0  0 0 0 0.2 0" type="matrix" in="shadowBlurOuter1"></feColorMatrix>
        </filter>
    </defs>
    <g id="Animar" stroke="none" stroke-width="1" fill="none" fill-rule="evenodd">
        <g id="plato-01-120px" transform="translate(26.000000, 20.000000)">
            <g id="bg">
                <use fill="black" fill-opacity="1" filter="url(#filter-2)" xlink:href="#path-1"></use>
                <use fill="#FFFFFF" fill-rule="evenodd" xlink:href="#path-1"></use>
            </g>
            <g id="Group-4" opacity="0.9" transform="translate(9.000000, 13.500000)">
                <ellipse id="Oval" fill-opacity="0.2" fill="#EB9700" fill-rule="nonzero" cx="51.7605634" cy="45.7954545" rx="44.3661972" ry="44.3181818"></ellipse>
                <g id="Group-3" transform="translate(35.492958, 0.000000)">
                    <ellipse id="Oval" fill="#FFFFFF" cx="24.4014085" cy="24.375" rx="24.4014085" ry="24.375"></ellipse>
                    <ellipse id="Oval" fill="#EB9700" fill-rule="nonzero" cx="31.056338" cy="26.5909091" rx="10.3521127" ry="10.3409091"></ellipse>
                </g>
                <path d="M24.4700009,18.9970685 C25.7318105,18.1931293 27.2304571,17.7272727 28.8380282,17.7272727 C33.3302034,17.7272727 36.971831,21.3649591 36.971831,25.8522727 C36.971831,30.3395863 33.3302034,33.9772727 28.8380282,33.9772727 C28.5495944,33.9772727 28.2646672,33.9622757 27.9839853,33.9330198 L28.0985915,46.4958545 L20.4350507,65.8469613 C18.9642261,66.3625577 17.392979,66.56552 15.8313375,66.4422433 C10.2935502,66.1251668 6.07027788,61.5919723 6.39104748,56.3091224 C6.50602388,55.142714 6.86376057,54.0099013 7.44359092,52.9773203 C4.03475901,51.4174816 1.49741909,48.5299197 0.483589226,45.055683 C-1.45820205,38.4020742 2.62215024,31.5069096 9.59757915,29.6547053 C9.21655609,28.5393845 9.07247175,27.3629807 9.17376741,26.1940735 C9.82724086,20.936212 14.8218738,17.1768286 20.3349194,17.7934897 C21.7856149,17.9237902 23.1923195,18.3336734 24.4700009,18.9970685 Z" id="Combined-Shape" fill="#53B56D" fill-rule="nonzero"></path>
                <path d="M41.1747252,53.2971882 C43.9290363,54.3716583 45.8802421,57.0482218 45.8802421,60.1800206 C45.8802421,61.0707245 45.7224149,61.9246058 45.4331721,62.7152812 C48.0892059,63.8356634 49.9532343,66.4618044 49.9532343,69.5228414 C49.9532343,73.6022173 46.6426638,76.909205 42.5588681,76.909205 C42.4237611,76.909205 42.2895004,76.9055854 42.156178,76.898438 L44.0736575,90.018919 C43.1763481,91.0565532 42.0629092,91.8859526 40.8115809,92.4495251 C36.4276671,94.544371 31.1737547,92.6988465 29.0674716,88.3241709 C28.6362499,87.339549 28.4059752,86.2788979 28.3904816,85.204449 C25.0843503,85.3990394 21.8547767,84.1586501 19.5312315,81.8012477 C15.0812086,77.2865948 15.1374713,70.0234135 19.6570155,65.5782067 C18.8685319,64.8449875 18.2343821,63.962245 17.7915664,62.9814218 C15.951308,58.4856553 18.1041591,53.3505536 22.6024987,51.5065699 C23.8609215,50.9568331 25.2244538,50.6884527 26.5974574,50.7203123 L26.6727687,50.7987028 C26.9387643,46.9608656 30.1396809,43.9300206 34.0492562,43.9300206 C38.1330519,43.9300206 41.4436224,47.2370082 41.4436224,51.3163842 C41.4436224,52.0025234 41.3499655,52.6668116 41.1747252,53.2971882 Z" id="Combined-Shape" fill="#438755" fill-rule="nonzero" transform="translate(33.091712, 68.621710) rotate(-11.000000) translate(-33.091712, -68.621710) "></path>
                <ellipse id="Oval" fill="#EB9700" fill-rule="nonzero" cx="61.3137445" cy="74.3787008" rx="20.3982516" ry="20.3761755"></ellipse>
                <g id="Group" transform="translate(46.117047, 58.281522)" fill="#FECB00">
                    <ellipse id="Oval" cx="15.2561923" cy="3.02529606" rx="2.21830986" ry="2.21590909"></ellipse>
                    <ellipse id="Oval-Copy-5" cx="27.0871782" cy="16.3207506" rx="2.21830986" ry="2.21590909"></ellipse>
                    <ellipse id="Oval-Copy-6" cx="13.7773191" cy="14.8434779" rx="2.21830986" ry="2.21590909"></ellipse>
                    <ellipse id="Oval-Copy-7" cx="3.42520641" cy="17.7980233" rx="2.21830986" ry="2.21590909"></ellipse>
                    <ellipse id="Oval-Copy-8" cx="10.8195726" cy="28.1389324" rx="2.21830986" ry="2.21590909"></ellipse>
                    <ellipse id="Oval-Copy-9" cx="22.6505585" cy="26.6616597" rx="2.21830986" ry="2.21590909"></ellipse>
                </g>
                <g id="Group-2" transform="translate(79.500000, 16.500000)">
                    <path d="M3.67480497,10.5634377 C3.21509723,9.60107832 2.95774648,8.52374219 2.95774648,7.38636364 C2.95774648,3.30698764 6.26831699,0 10.3521127,0 C14.4359084,0 17.7464789,3.30698764 17.7464789,7.38636364 C17.7464789,8.52374219 17.4891281,9.60107832 17.0294204,10.5634377 C19.2769387,12.4603296 20.7042254,15.2966194 20.7042254,18.4659091 C20.7042254,24.1770355 16.0694266,28.8068182 10.3521127,28.8068182 C4.63479872,28.8068182 0,24.1770355 0,18.4659091 C0,15.2966194 1.4272867,12.4603296 3.67480497,10.5634377 Z" id="Combined-Shape" fill="#438755"></path>
                    <ellipse id="Oval" fill="#EB9700" cx="10.3521127" cy="17.7272727" rx="4.43661972" ry="4.43181818"></ellipse>
                </g>
                <g id="Group-2-Copy" transform="translate(75.570423, 55.227273) rotate(-26.000000) translate(-75.570423, -55.227273) translate(63.000000, 37.500000)">
                    <path d="M4.46226318,12.6761253 C3.90404664,11.521294 3.5915493,10.2284906 3.5915493,8.86363636 C3.5915493,3.96838517 7.61152777,0 12.5704225,0 C17.5293173,0 21.5492958,3.96838517 21.5492958,8.86363636 C21.5492958,10.2284906 21.2367984,11.521294 20.6785819,12.6761253 C23.4077112,14.9523955 25.1408451,18.3559433 25.1408451,22.1590909 C25.1408451,29.0124426 19.5128752,34.5681818 12.5704225,34.5681818 C5.62796987,34.5681818 0,29.0124426 0,22.1590909 C0,18.3559433 1.73313385,14.9523955 4.46226318,12.6761253 Z" id="Combined-Shape" fill="#438755"></path>
                    <ellipse id="Oval" fill="#EB9700" cx="12.5704225" cy="21.2727273" rx="5.38732394" ry="5.31818182"></ellipse>
                </g>
                <g id="Group" transform="translate(20.959203, 9.118339)" fill="#E90100" fill-rule="nonzero">
                    <ellipse id="Oval" cx="8.15930063" cy="32.5998433" rx="8.15930063" ry="8.15047022"></ellipse>
                    <ellipse id="Oval" cx="22.6930549" cy="50.7366771" rx="8.15930063" ry="8.15047022"></ellipse>
                    <ellipse id="Oval" cx="10.0971345" cy="7.13166144" rx="5.91549296" ry="5.90909091"></ellipse>
                    <ellipse id="Oval-Copy-10" cx="73.4562895" cy="37.2907524" rx="5.91549296" ry="5.90909091"></ellipse>
                </g>
            </g>
        </g>
    </g>
</svg>