<?xml version="1.0" encoding="UTF-8"?>
<svg width="189px" height="36px" viewBox="0 0 189 36" version="1.1" xmlns="http://www.w3.org/2000/svg" xmlns:xlink="http://www.w3.org/1999/xlink">
    <!-- Generator: Sketch 55.2 (78181) - https://sketchapp.com -->
    <title>logo-e2m-login</title>
    <desc>Created with Sketch.</desc>
    <defs>
        <polygon id="path-1" points="0.0309449612 0.0457505454 12.1491008 0.0457505454 12.1491008 25.6876124 0.0309449612 25.6876124"></polygon>
    </defs>
    <g id="Login-" stroke="none" stroke-width="1" fill="none" fill-rule="evenodd">
        <g id="E2M-Login" transform="translate(-85.000000, -126.000000)">
            <g id="Group-2" transform="translate(0.000000, 47.000000)">
                <g id="Group-6" transform="translate(16.000000, 39.000000)">
                    <g id="logo-e2m-login" transform="translate(69.000000, 40.000000)">
                        <g id="eat" transform="translate(0.000000, 2.880000)" fill="#FFFFFF" fill-rule="nonzero">
                            <path d="M3.4434186,12.5378618 L13.7353798,12.5378618 C13.6794109,11.4272836 13.3721705,10.4700109 12.8130698,9.66292364 C12.2538217,8.85739637 11.5764496,8.29452 10.7802171,7.97769818 C9.98295349,7.66087636 9.29865891,7.50246545 8.7254186,7.50246545 C7.43989922,7.50246545 6.32508527,7.88835273 5.3825969,8.66182909 C4.43922481,9.43544727 3.79263566,10.7262764 3.4434186,12.5378618 M8.8817842e-15,15.1870255 C8.8817842e-15,12.9220473 0.439209302,10.9638218 1.31689147,9.31234909 C2.19545736,7.66087636 3.31218605,6.51838909 4.66855039,5.88460363 C6.02403101,5.25110181 7.37700775,4.93428 8.7254186,4.93428 C10.752969,4.93428 12.441907,5.44312364 13.7913488,6.46095273 C15.1406434,7.47892364 16.0639845,8.80336364 16.5610775,10.4346982 C17.0571395,12.0660327 17.3057597,13.6230546 17.3057597,15.1060473 L3.15031783,15.1060473 C3.15031783,17.5867309 3.705,19.5347455 4.81642636,20.9503745 C5.92785271,22.3658618 7.54491473,23.0736764 9.6687907,23.0736764 C10.9272093,23.0736764 12.0420233,22.8647782 13.0142636,22.44684 C13.9856202,22.0289018 14.8633023,21.50304 15.6465736,20.8695381 L16.4445736,23.4781419 C15.8155116,24.08484 14.8501938,24.5970873 13.5497984,25.0150255 C12.2494031,25.4329636 10.928093,25.6418618 9.58483721,25.6418618 C6.64970543,25.6418618 4.31844961,24.7488327 2.59106977,22.9624908 C0.863689922,21.1761491 8.8817842e-15,18.58428 8.8817842e-15,15.1870255" id="Fill-1"></path>
                            <path d="M23.5853922,19.5162382 C23.5853922,20.4111109 23.8513922,21.1626055 24.3851597,21.7727073 C24.9190744,22.3826672 25.4588806,22.75182 26.0066403,22.8798818 C26.5536636,23.0096455 27.0454543,23.0736054 27.4803922,23.0736054 C28.4342217,23.0736054 29.3049814,22.8698127 30.0907566,22.4636455 C30.8765318,22.0574782 31.5994155,21.57558 32.2592605,21.0210709 L32.2592605,14.8633255 C30.4206791,14.9173582 28.8305705,15.1027145 27.4908496,15.4212382 C26.150245,15.7397619 25.1640124,16.2520091 24.5330357,16.95642 C23.9013225,17.6608309 23.5853922,18.5151436 23.5853922,19.5162382 M20.4350744,19.4354018 C20.4350744,17.5007182 21.1666481,15.9722018 22.6297953,14.8499945 C24.0929426,13.7276455 25.741524,13.0215327 27.5758341,12.7316564 C29.4099969,12.4400782 30.9710899,12.29514 32.2592605,12.29514 L32.2592605,12.0575946 C32.2592605,10.4330673 31.908276,9.26859819 31.2066016,8.56248545 C30.5047798,7.85467092 29.5010202,7.50253637 28.1962062,7.50253637 C27.271245,7.50253637 26.339214,7.67442 25.4002605,8.01648546 C24.461307,8.36025273 23.5432682,8.86909637 22.6464388,9.54159818 L21.6242682,7.25307818 C22.3654155,6.68679818 23.2825705,6.15937637 24.3747023,5.66896909 C25.4668341,5.17856181 26.8318884,4.93420909 28.4701597,4.93420909 C30.6631132,4.93420909 32.3686946,5.49708545 33.5849891,6.62269637 C34.801431,7.74844908 35.4095783,9.63931091 35.4095783,12.29514 L35.4095783,25.1767691 L32.5112682,25.1767691 L32.3860744,23.4714054 C31.6983922,24.1606418 30.9080512,24.6948709 30.0172605,25.0739509 C29.1264698,25.4514709 28.146276,25.6419327 27.0803612,25.6419327 C26.2281597,25.6419327 25.4064465,25.5087655 24.6171364,25.2458345 C23.8278264,24.9830454 23.1180512,24.5937545 22.4897256,24.0798054 C21.8605163,23.5657145 21.3607721,22.9203 20.9906403,22.14342 C20.6205085,21.3648382 20.4350744,20.4615982 20.4350744,19.4354018" id="Fill-3"></path>
                            <path d="M38.8539543,7.98776728 L38.8539543,5.41958181 L42.2353651,5.41958181 L42.2353651,7.10542736e-15 L45.3435589,7.10542736e-15 L45.3435589,5.41958181 L50.4891713,5.41958181 L50.4891713,7.98776728 L45.3015822,7.98776728 L45.3015822,20.6604982 C45.3015822,21.6345054 45.4871636,22.27992 45.8581791,22.5967418 C46.2291946,22.9152655 46.7016907,23.0736764 47.2758147,23.0736764 C48.1998922,23.0736764 49.1450318,22.7079272 50.111086,21.9782727 L50.9721248,24.3881891 C50.4821016,24.7251491 49.8870628,25.0184291 49.1870085,25.2678872 C48.4869543,25.5172036 47.6818845,25.6418618 46.7717992,25.6418618 C45.3191093,25.6418618 44.198993,25.2593781 43.4139543,24.4959709 C42.6281791,23.7325637 42.2353651,22.5614291 42.2353651,20.9790219 L42.2353651,7.98776728 L38.8539543,7.98776728 Z" id="Fill-5"></path>
                        </g>
                        <g id="meet" transform="translate(103.100775, 2.880000)">
                            <path d="M-1.77635684e-14,25.2225338 L-1.77635684e-14,5.46527563 L2.87739535,5.46527563 L3.10834109,7.04271927 C3.7664186,6.57074837 4.61007752,6.10898836 5.63917054,5.65743927 C6.66826357,5.20574836 7.79883721,4.97997382 9.03015504,4.97997382 C10.0663178,4.97997382 11.0637442,5.15852292 12.0230233,5.51576291 C12.982155,5.87314473 13.7906124,6.53033019 14.4486899,7.48746109 C15.2748217,6.79992654 16.2722481,6.21010473 17.4415581,5.71799563 C18.6105736,5.22602836 19.8952093,4.97997382 21.2954651,4.97997382 C23.2854574,4.97997382 24.7957364,5.377632 25.8248295,6.17309018 C26.8556899,6.96854837 27.5208372,8.023392 27.820124,9.33790473 C28.1194109,10.6522756 28.2681705,11.970192 28.2681705,13.2913702 L28.2681705,25.2225338 L25.1177054,25.2225338 L25.1177054,12.8869047 C25.1177054,11.2286247 24.8026589,9.93779564 24.1727132,9.01427564 C23.5426202,8.09089746 22.3945194,7.62899564 20.7282636,7.62899564 C19.6922481,7.62899564 18.6596202,7.875192 17.6305271,8.36715927 C16.6014341,8.85926837 15.8137442,9.34130837 15.2677519,9.81313746 C15.5197597,10.6624866 15.6527597,11.8218502 15.6667519,13.2913702 L15.6667519,25.2225338 L12.5164341,25.2225338 L12.5164341,12.8869047 C12.5164341,11.7544865 12.3589845,10.773672 12.043938,9.94460291 C11.7288915,9.115392 11.2424031,8.52230837 10.5841783,8.16492655 C9.92624806,7.80768655 9.21220155,7.62899564 8.44292248,7.62899564 C7.49071318,7.62899564 6.54925581,7.86838473 5.61825581,8.34702108 C4.68696124,8.82551563 3.86436434,9.31422109 3.15046512,9.81313746 L3.15046512,25.2225338 L-1.77635684e-14,25.2225338 Z" id="Fill-7" fill="#FFFFFF" fill-rule="nonzero"></path>
                            <path d="M35.6585225,14.5410862 L45.280476,11.0266898 C44.8190264,10.0074425 44.1800961,9.21708982 43.3591194,8.65350436 C42.5404992,8.09105345 41.6999333,7.79607164 40.8386,7.77182073 C39.9757938,7.74813709 39.277507,7.83379528 38.742414,8.02922073 C37.5395225,8.46857346 36.6394527,9.21014073 36.0439721,10.2547734 C35.4468713,11.3001153 35.3169643,12.7283662 35.6585225,14.5410862 M33.4138713,18.1941807 C32.5796388,16.0765517 32.2690109,14.0956353 32.4822822,12.2514316 C32.6954062,10.4073698 33.3184295,8.95770436 34.353414,7.90200982 C35.3864837,6.84702436 36.5347318,6.08872255 37.796538,5.62795527 C39.6913829,4.93588254 41.4579411,4.834908 43.094445,5.32574073 C44.7312434,5.81657345 46.0830419,6.73952619 47.148662,8.09502437 C48.212662,9.45108982 49.0186155,10.8220462 49.564755,12.2086025 L36.3297085,17.0427588 C37.2433287,19.3620535 38.479507,20.9940971 40.0401581,21.9380388 C41.600662,22.8821226 43.3734062,22.9916062 45.3600109,22.2660644 C46.536538,21.8362134 47.5020031,21.260148 48.2562589,20.5377261 C49.0105147,19.8151625 49.6383984,19.0235334 50.1365225,18.1639735 L51.8435767,20.3305298 C51.4794837,21.1123735 50.7649953,21.9213043 49.7030574,22.7560461 C48.6411194,23.5909299 47.4825612,24.2376208 46.2275302,24.6959771 C43.4832822,25.698348 40.9745457,25.659348 38.7014682,24.5791189 C36.4283907,23.4988898 34.6652202,21.3707661 33.4138713,18.1941807" id="Fill-9" fill="#FFFFFF" fill-rule="nonzero"></path>
                            <path d="M64.9028659,8.383284 C63.9536023,7.61860037 62.8348116,7.24306582 61.5485558,7.25512036 C60.9761992,7.26050945 60.2935248,7.42530218 59.4987651,7.74949854 C58.7056256,8.07383673 58.0338504,8.64295309 57.4838814,9.45358582 C56.9319977,10.2660622 56.6352147,11.2260295 56.5904395,12.3370331 L66.8810752,12.2408804 C66.5144783,10.4326986 65.8538969,9.14796763 64.9028659,8.383284 M68.1439124,22.6570003 C66.4345016,24.4593677 64.1123775,25.3743785 61.1775403,25.4017495 C59.8351682,25.4143712 58.5116488,25.2178112 57.2071295,24.8119276 C55.9027574,24.4061859 54.9314008,23.9030149 54.2970364,23.3021313 L55.0686721,20.6861531 C55.8575403,21.3124222 56.7412612,21.8300586 57.7168891,22.2387785 C58.6923698,22.6476403 59.8092457,22.8461858 61.0676643,22.8344149 C63.1922767,22.8145604 64.8021217,22.0917131 65.8992612,20.6658732 C66.9962535,19.2400331 67.5314938,17.2867713 67.506455,14.8063713 L53.3516023,14.9385459 C53.3367264,13.4556949 53.5694395,11.8962622 54.0484163,10.2605313 C54.5288659,8.62465854 55.4395403,7.29142582 56.7786721,6.26111673 C58.1178039,5.23066582 59.8014395,4.70593855 61.8281062,4.68707672 C63.1774008,4.67445491 64.5333233,4.97851309 65.8942535,5.59953491 C67.2569512,6.22041492 68.3851682,7.35254945 69.2803775,8.99565492 C70.1755868,10.6389022 70.6345326,12.5930149 70.657362,14.8577095 C70.6916798,18.254964 69.853176,20.8546331 68.1439124,22.6570003" id="Fill-14" fill="#FFFFFF" fill-rule="nonzero"></path>
                            <g id="Group-13" transform="translate(73.265841, 0.000000)">
                                <g id="Fill-11-Clipped">
                                    <mask id="mask-2" fill="white">
                                        <use xlink:href="#path-1"></use>
                                    </mask>
                                    <g id="path-1"></g>
                                    <path d="M0.0309449612,8.03351782 L0.0309449612,5.46533237 L3.41220853,5.46533237 L3.41220853,0.0457505454 L6.5206969,0.0457505454 L6.5206969,5.46533237 L11.666162,5.46533237 L11.666162,8.03351782 L6.47857287,8.03351782 L6.47857287,20.7062487 C6.47857287,21.680256 6.66415426,22.3256706 7.03516977,22.6424923 C7.40618527,22.961016 7.8786814,23.1194269 8.45280543,23.1194269 C9.37688295,23.1194269 10.3220225,22.7536779 11.2880767,22.0240233 L12.1491155,24.4339396 C11.6590922,24.7708996 11.0640535,25.0641796 10.3639992,25.313496 C9.66379767,25.5629542 8.85887519,25.6876124 7.94878992,25.6876124 C6.4961,25.6876124 5.37598372,25.3051288 4.59006124,24.5417214 C3.80428605,23.7783142 3.41220853,22.6071796 3.41220853,21.0246306 L3.41220853,8.03351782 L0.0309449612,8.03351782 Z" id="Fill-11" fill="#FFFFFF" fill-rule="nonzero" mask="url(#mask-2)"></path>
                                </g>
                            </g>
                        </g>
                        <g id="2" transform="translate(55.968992, 0.000000)" fill="#FFFFFF" fill-rule="nonzero">
                            <path d="M29.1921651,2.10486819 C30.5485933,2.10486819 31.8977601,2.24014091 33.240093,2.51068637 C34.5821411,2.78177727 35.8253793,3.24145909 36.9700925,3.89109545 C38.1001408,4.55409546 39.0502243,5.45736819 39.8203429,6.60077728 C40.5901768,7.74445909 40.9754496,9.05355 40.9754496,10.5284591 C40.9754496,12.0302318 40.6078314,13.3837773 39.8734496,14.5881409 C39.138783,15.7923681 38.2203072,16.7801864 37.1183072,17.5511864 C35.9876894,18.3363682 34.7410341,18.9284592 33.3777718,19.3275955 C32.0142248,19.7267318 30.6192124,19.9262318 29.1921651,19.9262318 L12.0554956,19.9262318 C10.9957816,19.9262318 9.96069894,20.0717319 8.95053227,20.3625955 C7.94022323,20.6538682 7.07528137,21.0628227 6.35442529,21.59055 C5.60566328,22.1184137 5.03003202,22.71405 4.62724674,23.3767773 C4.22474622,24.0397773 4.02342479,24.8180046 4.02342479,25.7111863 L4.02342479,30.1530954 L38.3799121,30.1530954 C38.5773894,30.1530954 38.7930909,30.1974136 39.0261625,30.2850955 C39.2592341,30.3733227 39.4182694,30.4372773 39.502984,30.4779136 C39.6725553,30.5996864 39.8210547,30.7590955 39.9477706,30.9547773 C40.0753405,31.1511408 40.1601973,31.2966409 40.2020563,31.3914136 C40.2587225,31.5808227 40.279652,31.7940955 40.2659837,32.0306864 C40.251746,32.2676863 40.2305318,32.4264136 40.2020563,32.5076864 C40.1314372,32.6973682 40.0183896,32.8832319 39.8631985,33.0658227 C39.7077225,33.2486863 39.5876985,33.3602319 39.502984,33.4007319 C39.1638413,33.63105 38.7893892,33.7387772 38.3799121,33.72555 L2.15856742,33.72555 C1.88975915,33.72555 1.62137801,33.6614592 1.3528545,33.5328682 C1.08447336,33.4042773 0.908067932,33.2991409 0.823211085,33.2180045 C0.455592998,32.8664591 0.272211085,32.44005 0.272211085,31.9393227 L0.272211085,25.7111863 C0.272211085,24.2362773 0.63584261,22.8932319 1.36353279,21.68205 C2.0910806,20.4710046 3.01311574,19.4729592 4.12935347,18.6879136 C5.24516405,17.9169136 6.48498525,17.3316408 7.84853227,16.9323682 C9.21179455,16.5332318 10.6143529,16.3334591 12.0554956,16.3334591 L29.1921651,16.3334591 C30.2518791,16.3334591 31.2829752,16.1848227 32.2863078,15.8871408 C33.2894979,15.5894592 34.158284,15.17655 34.8929506,14.6488228 C35.6276173,14.1345955 36.1996892,13.5425046 36.6097357,12.8728227 C37.0193551,12.2028682 37.2243783,11.4216409 37.2243783,10.5284591 C37.2243783,9.64891364 37.0404268,8.93832273 36.6730935,8.39709546 C36.3057601,7.85614091 35.7620214,7.38227727 35.0414501,6.97632273 C34.3208787,6.57036818 33.4414144,6.25577727 32.4029148,6.03241364 C31.3645574,5.80918637 30.2943074,5.69736818 29.1921651,5.69736818 L5.99691599,5.69736818 C5.78463149,5.69736818 5.56551289,5.65714092 5.33984494,5.57586818 C5.11374984,5.49459546 4.95827388,5.42027727 4.8735594,5.35236818 C4.70398808,5.24409545 4.55192917,5.09205 4.41795217,4.89568637 C4.28326328,4.69986818 4.20225062,4.55409546 4.17405992,4.45932272 C4.11753614,4.28368637 4.09304727,4.07723181 4.09988137,3.84009545 C4.10742736,3.60377728 4.13191626,3.43782272 4.17405992,3.34277728 C4.2305837,3.15364091 4.3400718,2.97077727 4.50266665,2.79486818 C4.66469196,2.61923181 4.78870256,2.49759546 4.8735594,2.42968637 C5.21255967,2.21341363 5.58686948,2.10486819 5.99691599,2.10486819 L29.1921651,2.10486819 Z" id="Path"></path>
                            <path d="M4.22204106,7.67600454 C2.04708603,7.67600454 0.283743643,5.98727727 0.283743643,3.90391364 C0.283743643,1.82068636 2.04708603,0.131822727 4.22204106,0.131822727 C6.39728085,0.131822727 8.16062323,1.82068636 8.16062323,3.90391364 C8.16062323,5.98727727 6.39728085,7.67600454 4.22204106,7.67600454 Z" id="Path"></path>
                            <path d="M37.3970961,35.6473741 C35.2219987,35.6473741 33.4586564,33.9586468 33.4586564,31.8752832 C33.4586564,29.7920559 35.2219987,28.1031924 37.3970961,28.1031924 C39.0030773,28.1031924 40.3845863,29.0238921 40.9975852,30.3442324 C41.2148153,30.8121251 41.3355359,31.3302048 41.3355359,31.8752832 C41.3355359,33.9586468 39.5721936,35.6473741 37.3970961,35.6473741 Z" id="Path"></path>
                        </g>
                    </g>
                </g>
            </g>
        </g>
    </g>
</svg>