<?xml version="1.0" encoding="UTF-8"?>
<svg width="172px" height="172px" viewBox="0 0 172 172" version="1.1" xmlns="http://www.w3.org/2000/svg" xmlns:xlink="http://www.w3.org/1999/xlink">
    <!-- Generator: Sketch 55.2 (78181) - https://sketchapp.com -->
    <title>plato-03-120px</title>
    <desc>Created with Sketch.</desc>
    <defs>
        <circle id="path-1" cx="60" cy="60" r="60"></circle>
        <filter x="-36.2%" y="-31.2%" width="172.5%" height="172.5%" filterUnits="objectBoundingBox" id="filter-2">
            <feOffset dx="0" dy="6" in="SourceAlpha" result="shadowOffsetOuter1"></feOffset>
            <feGaussianBlur stdDeviation="13.5" in="shadowOffsetOuter1" result="shadowBlurOuter1"></feGaussianBlur>
            <feColorMatrix values="0 0 0 0 0   0 0 0 0 0   0 0 0 0 0  0 0 0 0.2 0" type="matrix" in="shadowBlurOuter1"></feColorMatrix>
        </filter>
    </defs>
    <g id="Animar" stroke="none" stroke-width="1" fill="none" fill-rule="evenodd">
        <g id="plato-03-120px" transform="translate(26.000000, 20.000000)">
            <g id="Oval">
                <use fill="black" fill-opacity="1" filter="url(#filter-2)" xlink:href="#path-1"></use>
                <use fill="#FFFFFF" fill-rule="evenodd" xlink:href="#path-1"></use>
            </g>
            <g id="Group-3" opacity="0.9" transform="translate(9.000000, 16.500000)">
                <g id="Group" transform="translate(7.551724, 0.620690)" fill-rule="nonzero">
                    <circle id="Oval" fill="#FBEACC" cx="41.3793103" cy="42.8793103" r="41.3793103"></circle>
                    <g id="Group-5" transform="translate(48.724138, 0.569656)">
                        <path d="M19.0096552,3.810344 C12.5994828,1.37879227 5.43155172,4.60405089 3,11.0142233 C3,11.0142233 3,11.0142233 3,11.0144819 L26.2137931,19.8199992 C28.6453448,13.4098268 25.4200862,6.24189572 19.0096552,3.810344 C19.0096552,3.810344 19.0096552,3.810344 19.0096552,3.810344 L19.0096552,3.810344 Z" id="Path" fill="#FECB00"></path>
                        <path d="M27.8131034,9.47310262 C24.5296552,2.17948193 15.9553448,-1.07138014 8.66172414,2.21206814 C5.16,3.78861986 2.42767241,6.69137848 1.06551724,10.2820681 L0.333103448,12.2144819 L27.4137931,22.4889647 L28.1462069,20.552413 C29.5210345,16.963275 29.4010345,12.9730164 27.8131034,9.47310262 Z M18.2772414,5.74896469 C20.1760345,6.46560262 21.8203448,7.72818882 23.0027586,9.3779302 L15.6455172,12.688275 L12.3351724,5.33103365 C14.3131034,4.87948193 16.3805172,5.02275779 18.2772414,5.74275779 L18.2772414,5.74896469 Z M8.57172414,7.04827503 L10.6717241,11.7179302 L5.86137931,9.89310262 C6.5712931,8.77586124 7.49172414,7.80758538 8.57172414,7.04206814 L8.57172414,7.04827503 Z M24.8213793,17.0848268 L20.0110345,15.2599992 L24.6786207,13.1599992 C24.9783621,14.4448268 25.0267241,15.7754302 24.8213793,17.0786199 L24.8213793,17.0848268 Z" id="Shape" fill="#EB9700"></path>
                    </g>
                </g>
                <g id="Group" transform="translate(94.189655, 88.758621)" fill="#000000" fill-rule="nonzero">
                    <path d="M0.362586207,0.241293103 L0.362586207,0.25862069 L0.264827586,0.25862069 C0.264568966,0.254224138 0.265344828,0.250086207 0.266896552,0.245948276 C0.269482759,0.239482759 0.273362069,0.232758621 0.279051724,0.226293103 C0.284482759,0.219827586 0.2925,0.212327586 0.302844828,0.203793103 C0.319137931,0.190603448 0.329741379,0.180258621 0.335431034,0.1725 C0.34112069,0.164741379 0.343965517,0.1575 0.343965517,0.150517241 C0.343965517,0.143534483 0.34112069,0.137327586 0.336206897,0.132413793 C0.331034483,0.1275 0.324310345,0.125172414 0.316034483,0.125172414 C0.3075,0.125172414 0.300258621,0.127758621 0.295086207,0.132931034 C0.289913793,0.138103448 0.287327586,0.145603448 0.287068966,0.154655172 L0.268448276,0.152844828 C0.269741379,0.13887931 0.274655172,0.128275862 0.283189655,0.121034483 C0.291724138,0.113793103 0.302586207,0.109913793 0.316810345,0.109913793 C0.331034483,0.109913793 0.342413793,0.114051724 0.350431034,0.121810345 C0.358706897,0.129568966 0.363103448,0.139396552 0.363103448,0.151034483 C0.363103448,0.156724138 0.361810345,0.162931034 0.359224138,0.168362069 C0.356896552,0.174051724 0.353017241,0.180258621 0.347068966,0.186465517 C0.341637931,0.192672414 0.332068966,0.201465517 0.319137931,0.212586207 C0.308275862,0.221637931 0.301293103,0.228103448 0.298189655,0.231206897 C0.295086207,0.234310345 0.292758621,0.237672414 0.290689655,0.241034483 L0.362586207,0.241034483 L0.362586207,0.241293103 Z" id="Path"></path>
                    <path d="M0.3825,0.20758046 C0.3825,0.184913793 0.384833333,0.166913793 0.3895,0.152913793 C0.3945,0.139247126 0.401166667,0.128913793 0.4105,0.121247126 C0.419833333,0.11358046 0.4315,0.109913793 0.445166667,0.109913793 C0.4555,0.109913793 0.4645,0.112247126 0.472166667,0.116247126 C0.479833333,0.12058046 0.486166667,0.126247126 0.4915,0.134247126 C0.4965,0.141913793 0.500166667,0.15158046 0.503166667,0.16258046 C0.506166667,0.17358046 0.5075,0.188913793 0.5075,0.207913793 C0.5075,0.230247126 0.505166667,0.248247126 0.5005,0.261913793 C0.495833333,0.275913793 0.489166667,0.286247126 0.479833333,0.293913793 C0.4705,0.30158046 0.458833333,0.305247126 0.445166667,0.305247126 C0.426833333,0.305247126 0.412166667,0.29858046 0.401833333,0.285247126 C0.3885,0.268913793 0.3825,0.243247126 0.3825,0.20758046 Z M0.4065,0.20758046 C0.4065,0.238913793 0.410166667,0.25958046 0.4175,0.270247126 C0.4245,0.28058046 0.433833333,0.285913793 0.4445,0.285913793 C0.455166667,0.285913793 0.4645,0.28058046 0.471833333,0.270247126 C0.478833333,0.259913793 0.4825,0.238913793 0.4825,0.20758046 C0.4825,0.175913793 0.478833333,0.155247126 0.471833333,0.144913793 C0.4645,0.134913793 0.455166667,0.12958046 0.444166667,0.12958046 C0.4335,0.12958046 0.424833333,0.134247126 0.4185,0.143247126 C0.4105,0.154913793 0.4065,0.176247126 0.4065,0.20758046 Z" id="Shape"></path>
                    <path d="M0.559913793,0.343298851 L0.559913793,0.151965517 L0.581247126,0.151965517 L0.581247126,0.169965517 C0.586247126,0.162965517 0.591913793,0.157965517 0.598247126,0.154298851 C0.60458046,0.150632184 0.612247126,0.148965517 0.621247126,0.148965517 C0.632913793,0.148965517 0.643247126,0.151965517 0.65258046,0.157965517 C0.66158046,0.163965517 0.668247126,0.172632184 0.673247126,0.183632184 C0.677913793,0.194632184 0.680247126,0.206632184 0.680247126,0.219632184 C0.680247126,0.233965517 0.67758046,0.246632184 0.67258046,0.257965517 C0.66758046,0.269298851 0.660247126,0.277965517 0.65058046,0.283965517 C0.641247126,0.289965517 0.63058046,0.292965517 0.620247126,0.292965517 C0.61258046,0.292965517 0.605247126,0.291298851 0.599247126,0.287632184 C0.592913793,0.284298851 0.587913793,0.280298851 0.583913793,0.275298851 L0.583913793,0.342632184 L0.559913793,0.342632184 L0.559913793,0.343298851 Z M0.581247126,0.221965517 C0.581247126,0.239965517 0.584913793,0.252965517 0.591913793,0.261298851 C0.599247126,0.269632184 0.607913793,0.273965517 0.618247126,0.273965517 C0.62858046,0.273965517 0.63758046,0.269632184 0.644913793,0.260965517 C0.652247126,0.252298851 0.655913793,0.238632184 0.655913793,0.219965517 C0.655913793,0.202298851 0.652247126,0.188965517 0.645247126,0.180298851 C0.638247126,0.171632184 0.629247126,0.167298851 0.619247126,0.167298851 C0.609247126,0.167298851 0.600247126,0.171965517 0.592913793,0.181298851 C0.584913793,0.190632184 0.581247126,0.203965517 0.581247126,0.221965517 Z" id="Shape"></path>
                    <path d="M0.662844828,0.25862069 L0.701896552,0.202758621 L0.665689655,0.151293103 L0.688448276,0.151293103 L0.704741379,0.176637931 C0.707844828,0.181551724 0.710172414,0.185431034 0.711982759,0.188534483 C0.715086207,0.184137931 0.717672414,0.180258621 0.720258621,0.176896552 L0.738103448,0.151293103 L0.759827586,0.151293103 L0.722844828,0.201724138 L0.762672414,0.25862069 L0.740172414,0.25862069 L0.718189655,0.225258621 L0.7125,0.216206897 L0.684568966,0.25862069 L0.662844828,0.25862069 Z" id="Path"></path>
                </g>
                <path d="M96.7034483,38.2324138 C89.9149138,32.2918966 81.2006897,29.0172413 72.18,29.0172413 L47.9337931,29.0172413 C40.4068966,29.0167241 32.9635345,30.5963793 26.0855172,33.6537931 L17.8965517,37.2931034 C17.8965517,37.2931034 13.2641379,29.0172413 7.55172414,29.0172413 L1.34482759,29.0172413 C1.34482759,37.0158621 7.82896552,43.5 15.8275862,43.5 C7.82896552,43.5 1.34482759,49.9841379 1.34482759,57.9827587 L7.55172414,57.9827587 C13.2641379,57.9827587 17.8965517,49.7068966 17.8965517,49.7068966 L26.0855172,53.3462069 C32.9635345,56.4036207 40.4068966,57.9832759 47.9337931,57.9827587 L72.18,57.9827587 C81.2006897,57.9827587 89.9149138,54.7081034 96.7034483,48.7675862 L102.724138,43.5 L96.7034483,38.2324138 Z" id="Path" fill="#03A1B8" fill-rule="nonzero"></path>
                <path d="M81.7841379,30.2917241 C80.4481034,29.9407759 79.0937069,29.6643103 77.7268966,29.4641379 L77.2096552,31.6013793 C75.3786207,39.4267241 75.3786207,47.5691379 77.2096552,55.3944828 L77.7268966,57.5317241 C79.0937069,57.3315517 80.4481034,57.0550862 81.7841379,56.7041379 L81.2296552,54.4282759 C79.5496552,47.2437931 79.5496552,39.7686207 81.2296552,32.5841379 L81.7841379,30.2917241 Z" id="Path" fill="#007C92" fill-rule="nonzero"></path>
                <polygon id="Path" fill="#007C92" fill-rule="nonzero" points="61.3448276 29.0172414 69.6206897 29.0172414 69.6206897 57.9827586 61.3448276 57.9827586"></polygon>
                <polygon id="Path" fill="#03A1B8" fill-rule="nonzero" points="53.0689655 29.0172414 61.3448276 29.0172414 61.3448276 57.9827586 53.0689655 57.9827586"></polygon>
                <path d="M48.9310345,78.6724138 C41.7651724,78.6931034 34.7891379,76.3678448 29.0689655,72.0517241 L31.5517241,68.7413793 C41.8505172,76.4656034 56.0115517,76.4656034 66.3103448,68.7413793 L68.7931034,72.0517241 C63.072931,76.3678448 56.0968966,78.6931034 48.9310345,78.6724138 Z" id="Path" fill="#FECB00" fill-rule="nonzero"></path>
                <circle id="Oval" fill="#E90100" fill-rule="nonzero" cx="28.2413793" cy="8.32758621" r="6.20689655"></circle>
                <circle id="Oval-Copy" fill="#E90100" fill-rule="nonzero" cx="79.7068966" cy="66.2068966" r="6.20689655"></circle>
                <circle id="Oval" fill="#53B56D" fill-rule="nonzero" cx="18" cy="16.5" r="4.5"></circle>
                <polygon id="Path" fill="#FECB00" fill-rule="nonzero" points="22.6512931 65.6537069 25.5773276 62.7276724 29.7147414 66.8650862 26.7887069 69.7911207"></polygon>
                <path d="M55.137931,8.32758621 C48.2818966,8.32758621 42.7241379,13.8853448 42.7241379,20.7413793 L67.5517241,20.7413793 C67.5517241,13.8853448 61.9939655,8.32758621 55.137931,8.32758621 Z" id="Path" fill="#53B56D" fill-rule="nonzero"></path>
                <path d="M55.137931,6.25862069 C47.1437069,6.26896552 40.6655172,12.7471552 40.6551724,20.7413793 L40.6551724,22.8103448 L69.6206897,22.8103448 L69.6206897,20.7413793 C69.6103448,12.7471552 63.1321552,6.26896552 55.137931,6.25862069 Z M60.8151724,12.1386207 L55.137931,17.8158621 L49.4606897,12.1386207 C52.8892241,9.81568966 57.3866379,9.81568966 60.8151724,12.1386207 Z M46.5289655,15.057931 L50.1434483,18.6724138 L45,18.6724138 C45.2718103,17.3803448 45.7911207,16.152931 46.5289655,15.057931 Z M60.1324138,18.6724138 L63.7468966,15.057931 C64.4847414,16.152931 65.0040517,17.3803448 65.2758621,18.6724138 L60.1324138,18.6724138 Z" id="Shape" fill="#438755" fill-rule="nonzero"></path>
                <polygon id="Path" fill="#007C92" fill-rule="nonzero" points="53.0689655 57.9827586 46.9841379 57.9827586 44.7931034 57.8917241 44.7931034 29.1082759 47.3482759 29.0172414 53.0689655 29.0172414"></polygon>
                <circle id="Oval" fill="#007C92" cx="87.75" cy="42.75" r="2.25"></circle>
            </g>
            <g id="Group" transform="translate(70.344828, 45.517241)"></g>
        </g>
    </g>
</svg>