<?xml version="1.0" encoding="UTF-8"?>
<svg width="172px" height="172px" viewBox="0 0 172 172" version="1.1" xmlns="http://www.w3.org/2000/svg" xmlns:xlink="http://www.w3.org/1999/xlink">
    <!-- Generator: Sketch 55.2 (78181) - https://sketchapp.com -->
    <title>plato-02-120px</title>
    <desc>Created with Sketch.</desc>
    <defs>
        <circle id="path-1" cx="60" cy="60" r="60"></circle>
        <filter x="-36.2%" y="-31.2%" width="172.5%" height="172.5%" filterUnits="objectBoundingBox" id="filter-2">
            <feOffset dx="0" dy="6" in="SourceAlpha" result="shadowOffsetOuter1"></feOffset>
            <feGaussianBlur stdDeviation="13.5" in="shadowOffsetOuter1" result="shadowBlurOuter1"></feGaussianBlur>
            <feColorMatrix values="0 0 0 0 0   0 0 0 0 0   0 0 0 0 0  0 0 0 0.2 0" type="matrix" in="shadowBlurOuter1"></feColorMatrix>
        </filter>
    </defs>
    <g id="Animar" stroke="none" stroke-width="1" fill="none" fill-rule="evenodd">
        <g id="plato-02-120px" transform="translate(26.000000, 20.000000)">
            <g id="Oval">
                <use fill="black" fill-opacity="1" filter="url(#filter-2)" xlink:href="#path-1"></use>
                <use fill="#FFFFFF" fill-rule="evenodd" xlink:href="#path-1"></use>
            </g>
            <g id="Group-4" opacity="0.9" transform="translate(10.500000, 8.224138)">
                <ellipse id="Oval-Copy-6" fill="#FECB00" cx="11.2183099" cy="77.9917712" rx="2.21830986" ry="2.21590909"></ellipse>
                <ellipse id="Oval-Copy-12" fill="#FECB00" cx="96.7183099" cy="61.4917712" rx="2.21830986" ry="2.21590909"></ellipse>
                <ellipse id="Oval-Copy-14" fill="#FECB00" cx="95.2183099" cy="34.4917712" rx="2.21830986" ry="2.21590909"></ellipse>
                <ellipse id="Oval-Copy-11" fill="#FECB00" cx="2.21830986" cy="65.9917712" rx="2.21830986" ry="2.21590909"></ellipse>
                <ellipse id="Oval-Copy-13" fill="#FECB00" cx="87.7183099" cy="49.4917712" rx="2.21830986" ry="2.21590909"></ellipse>
                <g id="Group" transform="translate(13.965517, 0.000000)" fill="#438755" fill-rule="nonzero">
                    <path d="M6.88312116,17.6208671 L3.94965517,19.4337931 C3.62327586,19.6352586 3.24698276,19.7420698 2.86344828,19.7420698 C1.72086207,19.7431034 0.793706897,18.8175 0.792671875,17.6749138 C0.792155172,16.9567241 1.16405172,16.2897414 1.77517241,15.9124138 L4.74063042,14.0804356 L4.67172414,9.7737931 C4.65336207,8.6312069 5.56448276,7.69008621 6.70706897,7.67172414 C6.70784483,7.67172414 6.70887931,7.67172414 6.70965517,7.67172414 C7.83103448,7.63396552 8.77086207,8.5125 8.80862069,9.63413793 C8.80939655,9.6587069 8.80991379,9.68327586 8.80965517,9.70758621 L8.83897619,11.5485906 L10.929435,10.2571628 L10.7875862,5.84275862 C10.7516379,4.70146552 11.6469828,3.74689655 12.7882759,3.70965517 C13.902931,3.64681034 14.8575,4.49922414 14.9203448,5.61387931 C14.9221552,5.64594828 14.9231897,5.67801724 14.9234483,5.71034483 L14.989279,7.74910312 L17.1510401,6.41362677 L17.0855172,2.18896552 C17.0671552,1.04637931 17.9782759,0.105258621 19.1208621,0.0868964964 C19.1216379,0.0868964964 19.1226724,0.0868964964 19.1234483,0.0868964964 L19.1565517,0.0868964964 C20.2864655,0.086637931 21.2074138,0.993103448 21.2255172,2.12275862 L21.2524248,3.87990437 L24.1034483,2.11862069 C25.0487069,1.47672414 26.3353448,1.72241379 26.9775,2.66767241 C27.6193966,3.61293103 27.3737069,4.89956897 26.4284483,5.54172414 C26.3790517,5.57534483 26.3281034,5.60663793 26.2758621,5.63586207 L23.0403199,7.63547573 L24.4510345,8.48689655 C25.4291379,9.07758621 25.7431034,10.3494828 25.1524138,11.3275862 C24.7774138,11.9485345 24.1047414,12.3276724 23.3793103,12.3268977 L23.3772414,12.3268977 C23.0006897,12.3271552 22.6313793,12.2242241 22.3096552,12.0289655 L19.0838944,10.080606 L17.196189,11.2472363 L18.3310345,11.942069 C19.3057759,12.5384483 19.6125,13.8118966 19.0161207,14.7866379 C18.6400862,15.4011207 17.9715517,15.7758621 17.2510345,15.7758621 L17.2572414,15.7758621 C16.8768103,15.7756034 16.5038793,15.6703448 16.1793103,15.4717241 L13.253944,13.6836029 L10.8352716,15.1783788 L12.0351724,15.9041379 C13.0122414,16.4966379 13.3236207,17.7690517 12.7311207,18.7461207 C12.3563793,19.3639655 11.6862931,19.7415517 10.9634483,19.742069 C10.5868966,19.7418103 10.2175862,19.6378448 9.89586207,19.442069 L6.88312116,17.6208671 Z" id="Combined-Shape"></path>
                </g>
                <g id="Group-3" transform="translate(15.000000, 18.775862)" fill-rule="nonzero">
                    <path d="M-1.49213975e-13,33.9745917 L-1.49213975e-13,21.2341198 L23.2878909,8.49364791 L65.6295108,8.49364791 L65.6295108,19.359147 C65.6295108,23.0151316 63.2972815,26.2612976 59.8392943,27.4174955 L46.5757819,31.8511797 L65.6295108,38.2214156 L65.6295108,48.8384755 C65.6295108,53.529358 61.8380834,57.3321234 57.1611868,57.3321234 L23.2878909,57.3321234 C10.4263593,57.3321234 -1.49213975e-13,46.8745848 -1.49213975e-13,33.9745917 Z" id="Path" fill="#BD0000"></path>
                    <path d="M57.6332959,46.7150635 L23.2878909,46.7150635 C10.4263593,46.7150635 -1.49213975e-13,36.257525 -1.49213975e-13,23.3575318 C-1.49213975e-13,10.4575386 10.4263593,3.73034936e-14 23.2878909,3.73034936e-14 L57.1611868,3.73034936e-14 C61.8380834,3.73034936e-14 65.6295108,3.80276543 65.6295108,8.49364791 L65.6295108,9.3430127 C65.6295108,12.6990653 63.6590377,15.7405876 60.6014435,17.1040835 L46.5757819,23.3575318 L61.5160225,31.6834301 C64.0549318,33.0978879 65.6295108,35.7818807 65.6295108,38.6949365 C65.6295108,43.1243739 62.0495269,46.7150635 57.6332959,46.7150635 L57.6332959,46.7150635 Z" id="Path" fill="#E60000"></path>
                    <g id="Group" transform="translate(14.184443, 10.351633)" fill="#BD0000">
                        <path d="M26.7230666,15.1293103 L20.6988838,15.1293103 L23.7727025,22.8351724 C24.2064395,23.9242173 23.6779631,25.1597777 22.5921652,25.5948117 C22.342085,25.6951429 22.0753328,25.7463703 21.8059342,25.7463703 C20.9395188,25.7466357 20.160433,25.2176407 19.839166,24.4107441 L16.1376616,15.1293103 L10.1134789,15.1293103 L13.1872975,22.8351724 C13.6210345,23.9242173 13.0925581,25.1597777 12.0067602,25.5948117 C11.75668,25.6951429 11.4899278,25.7463703 11.2205293,25.7463703 C10.3541139,25.7466357 9.57502807,25.2176407 9.25376103,24.4107441 L5.55225662,15.1293103 L2.75220529,15.1293103 C1.58304731,15.1293103 0.635124298,14.1785526 0.635124298,13.0058984 C0.635124298,11.8332441 1.58304731,10.8824864 2.75220529,10.8824864 L5.55225662,10.8824864 L9.25376103,1.60105263 C9.687498,0.51147686 10.9196391,-0.0188452813 12.0059663,0.416188748 C13.0922935,0.851222777 13.6210345,2.08704855 13.1872975,3.17662432 L10.1134789,10.8824864 L16.1376616,10.8824864 L19.839166,1.60105263 C20.272903,0.51147686 21.5050441,-0.0188452813 22.5913713,0.416188748 C23.6776985,0.851222777 24.2064395,2.08704855 23.7727025,3.17662432 L20.6988838,10.8824864 L26.7230666,10.8824864 L30.424571,1.60105263 C30.8583079,0.51147686 32.0904491,-0.0188452813 33.1767763,0.416188748 C34.2631034,0.851222777 34.7918444,2.08704855 34.3581075,3.17662432 L31.2842888,10.8824864 L32.3913392,10.8824864 C33.5604972,10.8824864 34.5084202,11.8332441 34.5084202,13.0058984 C34.5084202,14.1785526 33.5604972,15.1293103 32.3913392,15.1293103 L31.2842888,15.1293103 L34.3581075,22.8351724 C34.7918444,23.9242173 34.2633681,25.1597777 33.1775702,25.5948117 C32.92749,25.6951429 32.6607378,25.7463703 32.3913392,25.7463703 C31.5249238,25.7466357 30.745838,25.2176407 30.424571,24.4107441 L26.7230666,15.1293103 Z" id="Combined-Shape"></path>
                    </g>
                    <ellipse id="Oval" fill="#A8A8A8" cx="12.702486" cy="23.3575318" rx="4.23416199" ry="4.24682396"></ellipse>
                </g>
                <g id="Group-5" transform="translate(45.000000, 94.525862) rotate(159.000000) translate(-45.000000, -94.525862) translate(30.000000, 83.275862)" fill-rule="nonzero">
                    <path d="M19.0096552,3.810344 C12.5994828,1.37879227 5.43155172,4.60405089 3,11.0142233 C3,11.0142233 3,11.0142233 3,11.0144819 L26.2137931,19.8199992 C28.6453448,13.4098268 25.4200862,6.24189572 19.0096552,3.810344 C19.0096552,3.810344 19.0096552,3.810344 19.0096552,3.810344 L19.0096552,3.810344 Z" id="Path" fill="#FECB00"></path>
                    <path d="M27.8131034,9.47310262 C24.5296552,2.17948193 15.9553448,-1.07138014 8.66172414,2.21206814 C5.16,3.78861986 2.42767241,6.69137848 1.06551724,10.2820681 L0.333103448,12.2144819 L27.4137931,22.4889647 L28.1462069,20.552413 C29.5210345,16.963275 29.4010345,12.9730164 27.8131034,9.47310262 Z M18.2772414,5.74896469 C20.1760345,6.46560262 21.8203448,7.72818882 23.0027586,9.3779302 L15.6455172,12.688275 L12.3351724,5.33103365 C14.3131034,4.87948193 16.3805172,5.02275779 18.2772414,5.74275779 L18.2772414,5.74896469 Z M8.57172414,7.04827503 L10.6717241,11.7179302 L5.86137931,9.89310262 C6.5712931,8.77586124 7.49172414,7.80758538 8.57172414,7.04206814 L8.57172414,7.04827503 Z M24.8213793,17.0848268 L20.0110345,15.2599992 L24.6786207,13.1599992 C24.9783621,14.4448268 25.0267241,15.7754302 24.8213793,17.0786199 L24.8213793,17.0848268 Z" id="Shape" fill="#EB9700"></path>
                </g>
                <g id="Group-5-Copy" transform="translate(66.000000, 90.025862) rotate(159.000000) translate(-66.000000, -90.025862) translate(51.000000, 78.775862)" fill-rule="nonzero">
                    <path d="M19.0096552,3.810344 C12.5994828,1.37879227 5.43155172,4.60405089 3,11.0142233 C3,11.0142233 3,11.0142233 3,11.0144819 L26.2137931,19.8199992 C28.6453448,13.4098268 25.4200862,6.24189572 19.0096552,3.810344 C19.0096552,3.810344 19.0096552,3.810344 19.0096552,3.810344 L19.0096552,3.810344 Z" id="Path" fill="#FECB00"></path>
                    <path d="M27.8131034,9.47310262 C24.5296552,2.17948193 15.9553448,-1.07138014 8.66172414,2.21206814 C5.16,3.78861986 2.42767241,6.69137848 1.06551724,10.2820681 L0.333103448,12.2144819 L27.4137931,22.4889647 L28.1462069,20.552413 C29.5210345,16.963275 29.4010345,12.9730164 27.8131034,9.47310262 Z M18.2772414,5.74896469 C20.1760345,6.46560262 21.8203448,7.72818882 23.0027586,9.3779302 L15.6455172,12.688275 L12.3351724,5.33103365 C14.3131034,4.87948193 16.3805172,5.02275779 18.2772414,5.74275779 L18.2772414,5.74896469 Z M8.57172414,7.04827503 L10.6717241,11.7179302 L5.86137931,9.89310262 C6.5712931,8.77586124 7.49172414,7.80758538 8.57172414,7.04206814 L8.57172414,7.04827503 Z M24.8213793,17.0848268 L20.0110345,15.2599992 L24.6786207,13.1599992 C24.9783621,14.4448268 25.0267241,15.7754302 24.8213793,17.0786199 L24.8213793,17.0848268 Z" id="Shape" fill="#EB9700"></path>
                </g>
            </g>
        </g>
    </g>
</svg>