<?xml version="1.0" encoding="UTF-8"?>
<svg width="116px" height="116px" viewBox="0 0 116 116" version="1.1" xmlns="http://www.w3.org/2000/svg" xmlns:xlink="http://www.w3.org/1999/xlink">
    <!-- Generator: Sketch 55.2 (78181) - https://sketchapp.com -->
    <title>plato-01-80px</title>
    <desc>Created with Sketch.</desc>
    <defs>
        <circle id="path-1" cx="40" cy="40" r="40"></circle>
        <filter x="-36.2%" y="-31.2%" width="172.5%" height="172.5%" filterUnits="objectBoundingBox" id="filter-2">
            <feOffset dx="0" dy="4" in="SourceAlpha" result="shadowOffsetOuter1"></feOffset>
            <feGaussianBlur stdDeviation="9" in="shadowOffsetOuter1" result="shadowBlurOuter1"></feGaussianBlur>
            <feColorMatrix values="0 0 0 0 0   0 0 0 0 0   0 0 0 0 0  0 0 0 0.2 0" type="matrix" in="shadowBlurOuter1"></feColorMatrix>
        </filter>
    </defs>
    <g id="Pantallas" stroke="none" stroke-width="1" fill="none" fill-rule="evenodd">
        <g id="EWR-Login" transform="translate(-122.000000, -186.000000)">
            <g id="plato-01-80px" transform="translate(140.000000, 200.000000)">
                <g id="bg">
                    <use fill="black" fill-opacity="1" filter="url(#filter-2)" xlink:href="#path-1"></use>
                    <use fill="#FFFFFF" fill-rule="evenodd" xlink:href="#path-1"></use>
                </g>
                <g id="Group-4" opacity="0.9" transform="translate(6.000000, 9.000000)">
                    <ellipse id="Oval" fill-opacity="0.2" fill="#EB9700" fill-rule="nonzero" cx="34.5070423" cy="30.530303" rx="29.5774648" ry="29.5454545"></ellipse>
                    <g id="Group-3" transform="translate(23.661972, 0.000000)">
                        <ellipse id="Oval" fill="#FFFFFF" cx="16.2676056" cy="16.25" rx="16.2676056" ry="16.25"></ellipse>
                        <ellipse id="Oval" fill="#EB9700" fill-rule="nonzero" cx="20.7042254" cy="17.7272727" rx="6.90140845" ry="6.89393939"></ellipse>
                    </g>
                    <path d="M16.3133339,12.6647123 C17.1545403,12.1287529 18.1536381,11.8181818 19.2253521,11.8181818 C22.2201356,11.8181818 24.6478873,14.2433061 24.6478873,17.2348485 C24.6478873,20.2263909 22.2201356,22.6515152 19.2253521,22.6515152 C19.033063,22.6515152 18.8431115,22.6415172 18.6559902,22.6220132 L18.7323944,30.9972363 L13.6233672,43.8979742 C12.6428174,44.2417051 11.5953193,44.3770133 10.554225,44.2948289 C6.86236681,44.0834445 4.04685192,41.0613149 4.26069832,37.5394149 C4.33734925,36.7618093 4.57584038,36.0066008 4.96239395,35.3182135 C2.68983934,34.278321 0.998279394,32.3532798 0.322392817,30.037122 C-0.972134702,25.6013828 1.74810016,21.0046064 6.3983861,19.7698035 C6.14437073,19.0262564 6.0483145,18.2419871 6.11584494,17.4627156 C6.55149391,13.9574747 9.88124923,11.4512191 13.5566129,11.8623265 C14.5237433,11.9491935 15.4615463,12.222449 16.3133339,12.6647123 Z" id="Combined-Shape" fill="#53B56D" fill-rule="nonzero"></path>
                    <path d="M27.4498168,35.5314588 C29.2860242,36.2477722 30.5868281,38.0321478 30.5868281,40.1200137 C30.5868281,40.7138163 30.4816099,41.2830705 30.2887814,41.8101874 C32.0594706,42.5571089 33.3021562,44.3078696 33.3021562,46.3485609 C33.3021562,49.0681449 31.0951092,51.2728033 28.3725787,51.2728033 C28.2825074,51.2728033 28.1930003,51.2703903 28.1041186,51.2656253 L29.3824383,60.0126126 C28.7842321,60.7043688 28.0419395,61.2573017 27.2077206,61.6330167 C24.2851114,63.0295807 20.7825032,61.799231 19.3783144,58.8827806 C19.0908333,58.226366 18.9373168,57.5192652 18.9269877,56.802966 C16.7229002,56.932693 14.5698512,56.1057667 13.020821,54.5341651 C10.0541391,51.5243965 10.0916475,46.6822757 13.104677,43.7188045 C12.5790213,43.2299917 12.1562547,42.6414966 11.8610443,41.9876145 C10.6342053,38.9904368 12.0694394,35.5670357 15.0683325,34.3377133 C15.907281,33.9712221 16.8163026,33.7923018 17.7316383,33.8135415 L17.7818458,33.8658019 C17.9591762,31.3072437 20.0931206,29.2866804 22.6995041,29.2866804 C25.4220346,29.2866804 27.6290816,31.4913388 27.6290816,34.2109228 C27.6290816,34.668349 27.5666437,35.1112077 27.4498168,35.5314588 Z" id="Combined-Shape" fill="#438755" fill-rule="nonzero" transform="translate(22.061141, 45.747807) rotate(-11.000000) translate(-22.061141, -45.747807) "></path>
                    <ellipse id="Oval" fill="#EB9700" fill-rule="nonzero" cx="40.8758297" cy="49.5858005" rx="13.5988344" ry="13.584117"></ellipse>
                    <g id="Group" transform="translate(30.744698, 38.854348)" fill="#FECB00">
                        <ellipse id="Oval" cx="10.1707949" cy="2.01686404" rx="1.47887324" ry="1.47727273"></ellipse>
                        <ellipse id="Oval-Copy-5" cx="18.0581188" cy="10.8805004" rx="1.47887324" ry="1.47727273"></ellipse>
                        <ellipse id="Oval-Copy-6" cx="9.18487939" cy="9.89565192" rx="1.47887324" ry="1.47727273"></ellipse>
                        <ellipse id="Oval-Copy-7" cx="2.28347094" cy="11.8653489" rx="1.47887324" ry="1.47727273"></ellipse>
                        <ellipse id="Oval-Copy-8" cx="7.21304841" cy="18.7592883" rx="1.47887324" ry="1.47727273"></ellipse>
                        <ellipse id="Oval-Copy-9" cx="15.1003723" cy="17.7744398" rx="1.47887324" ry="1.47727273"></ellipse>
                    </g>
                    <g id="Group-2" transform="translate(53.000000, 11.000000)">
                        <path d="M2.44986998,7.04229183 C2.14339816,6.40071888 1.97183099,5.6824948 1.97183099,4.92424242 C1.97183099,2.20465843 4.17887799,0 6.90140845,0 C9.62393891,0 11.8309859,2.20465843 11.8309859,4.92424242 C11.8309859,5.6824948 11.6594187,6.40071888 11.3529469,7.04229183 C12.8512924,8.30688637 13.8028169,10.1977463 13.8028169,12.3106061 C13.8028169,16.1180237 10.7129511,19.2045455 6.90140845,19.2045455 C3.08986581,19.2045455 0,16.1180237 0,12.3106061 C0,10.1977463 0.951524464,8.30688637 2.44986998,7.04229183 Z" id="Combined-Shape" fill="#438755"></path>
                        <ellipse id="Oval" fill="#EB9700" cx="6.90140845" cy="11.8181818" rx="2.95774648" ry="2.95454545"></ellipse>
                    </g>
                    <g id="Group-2-Copy" transform="translate(50.380282, 36.818182) rotate(-26.000000) translate(-50.380282, -36.818182) translate(42.000000, 25.000000)">
                        <path d="M2.97484212,8.4507502 C2.60269776,7.68086265 2.3943662,6.81899376 2.3943662,5.90909091 C2.3943662,2.64559011 5.07435185,0 8.38028169,0 C11.6862115,0 14.3661972,2.64559011 14.3661972,5.90909091 C14.3661972,6.81899376 14.1578656,7.68086265 13.7857213,8.4507502 C15.6051408,9.96826364 16.7605634,12.2372955 16.7605634,14.7727273 C16.7605634,19.3416284 13.0085835,23.0454545 8.38028169,23.0454545 C3.75197991,23.0454545 0,19.3416284 0,14.7727273 C0,12.2372955 1.15542256,9.96826364 2.97484212,8.4507502 Z" id="Combined-Shape" fill="#438755"></path>
                        <ellipse id="Oval" fill="#EB9700" cx="8.38028169" cy="14.1818182" rx="3.5915493" ry="3.54545455"></ellipse>
                    </g>
                    <g id="Group" transform="translate(13.972802, 6.078892)" fill="#E90100" fill-rule="nonzero">
                        <ellipse id="Oval" cx="5.43953375" cy="21.7332288" rx="5.43953375" ry="5.43364681"></ellipse>
                        <ellipse id="Oval" cx="15.1287033" cy="33.8244514" rx="5.43953375" ry="5.43364681"></ellipse>
                        <ellipse id="Oval" cx="6.73142302" cy="4.75444096" rx="3.94366197" ry="3.93939394"></ellipse>
                        <ellipse id="Oval-Copy-10" cx="48.9708596" cy="24.8605016" rx="3.94366197" ry="3.93939394"></ellipse>
                    </g>
                </g>
            </g>
        </g>
    </g>
</svg>