<?xml version="1.0" encoding="UTF-8"?>
<svg width="104px" height="104px" viewBox="0 0 104 104" version="1.1" xmlns="http://www.w3.org/2000/svg" xmlns:xlink="http://www.w3.org/1999/xlink">
    <!-- Generator: Sketch 55.2 (78181) - https://sketchapp.com -->
    <title>icon-modal-registrado@1x</title>
    <desc>Created with Sketch.</desc>
    <defs>
        <circle id="path-1" cx="52" cy="52" r="52"></circle>
    </defs>
    <g id="Registro" stroke="none" stroke-width="1" fill="none" fill-rule="evenodd">
        <g id="E2M-Registro-correcto" transform="translate(-126.000000, -225.000000)">
            <g id="Overlay-/-Information-/-With_photo" transform="translate(14.000000, 10.000000)">
                <g id="content" transform="translate(0.000000, 149.000000)">
                    <g id="Group-2">
                        <g id="emojo_confirmación-registro" transform="translate(112.000000, 66.000000)">
                            <g id="Rectangle">
                                <mask id="mask-2" fill="white">
                                    <use xlink:href="#path-1"></use>
                                </mask>
                                <use id="Mask" fill="#E60000" xlink:href="#path-1"></use>
                                <rect fill="#BD0000" mask="url(#mask-2)" transform="translate(80.876295, 73.622987) rotate(-54.000000) translate(-80.876295, -73.622987) " x="41.8762951" y="42.6229873" width="78" height="62"></rect>
                            </g>
                            <circle id="Oval" fill="#FECB00" cx="52" cy="52" r="40"></circle>
                            <path d="M52,92 C74.09139,92 92,74.09139 92,52 C92,29.90861 74.09139,12 52,12" id="Oval-Copy-15" fill="#EB9700"></path>
                            <g id="Group-9" transform="translate(27.000000, 29.000000)" stroke="#000000" stroke-width="5">
                                <path d="M0,13 C6,22 14.1666667,26.5 24.5,26.5 C34.8333333,26.5 42.8333333,22 48.5,13" id="Path-3"></path>
                                <path d="M3,6 C3.66666667,2 5.5,0 8.5,0 C11.5,0 13.5,2 14.5,6" id="Path-4"></path>
                                <path d="M36,6 C36.6666667,2 38.5,0 41.5,0 C44.5,0 46.5,2 47.5,6" id="Path-4-Copy"></path>
                            </g>
                        </g>
                    </g>
                </g>
            </g>
        </g>
    </g>
</svg>