<?xml version="1.0" encoding="UTF-8"?>
<svg width="95px" height="65px" viewBox="0 0 95 65" version="1.1" xmlns="http://www.w3.org/2000/svg" xmlns:xlink="http://www.w3.org/1999/xlink">
    <!-- Generator: Sketch 55.2 (78181) - https://sketchapp.com -->
    <title>alien-grupo</title>
    <desc>Created with Sketch.</desc>
    <g id="Configurar-mesa" stroke="none" stroke-width="1" fill="none" fill-rule="evenodd">
        <g id="Seleccionar-una-persona---pantalla-2" transform="translate(-45.000000, -145.000000)">
            <g id="Group" transform="translate(36.000000, 143.000000)">
                <g id="Alien-Copy-3" transform="translate(64.000000, 9.000000)">
                    <rect id="Rectangle" x="0" y="0" width="48" height="48"></rect>
                    <polygon id="Rectangle" fill="#FFD119" fill-rule="nonzero" transform="translate(16.790094, 13.013725) rotate(-112.240828) translate(-16.790094, -13.013725) " points="10.4950767 11.4834563 23.0893256 11.466163 23.0851112 14.5439943 10.4908623 14.5612876"></polygon>
                    <polygon id="Rectangle" fill="#EDA219" fill-rule="nonzero" transform="translate(32.172222, 12.468596) rotate(-157.759172) translate(-32.172222, -12.468596) " points="30.6417813 6.29835064 33.7196126 6.29413622 33.702662 18.6388415 30.6248307 18.6430559"></polygon>
                    <circle id="Oval" fill="#FFD119" fill-rule="nonzero" cx="14.1904366" cy="6.68607069" r="2.99376299"></circle>
                    <circle id="Oval" fill="#EDA219" fill-rule="nonzero" cx="34.5480249" cy="6.68607069" r="2.99376299"></circle>
                    <path d="M24.3692308,14.8690229 C16.2123942,14.8690229 9.6,21.3943955 9.6,29.4438851 C9.6,37.4933747 20.885874,48 24.3692308,48 C27.8525876,48 39.1384615,37.4933747 39.1384615,29.4439711 C39.1384615,21.3944815 32.5260673,14.8690229 24.3692308,14.8690229 Z" id="Path" fill="#FFD119" fill-rule="nonzero"></path>
                    <path d="M24.3692308,14.8690229 L24.3692308,48 C27.8525876,48 39.1384615,37.4933747 39.1384615,29.4439711 C39.1384615,21.3944815 32.5260673,14.8690229 24.3692308,14.8690229 Z" id="Path" fill="#EDA219" fill-rule="nonzero"></path>
                    <path d="M19.7033991,26.4406951 C17.6091371,25.1182442 14.7891892,25.8467658 14.7891892,25.8467658 C14.7891892,25.8467658 15.3648296,28.7193582 17.4591789,30.0416333 C19.5534409,31.3640843 22.3733888,30.6355626 22.3733888,30.6355626 C22.3733888,30.6355626 21.7976611,27.7631461 19.7033991,26.4406951 Z" id="Path" fill="#444242" fill-rule="nonzero"></path>
                    <path d="M29.0350625,26.4406765 C26.9408005,27.7631538 26.3650728,30.6356276 26.3650728,30.6356276 C26.3650728,30.6356276 29.1849333,31.363988 31.2792827,30.0416865 C33.3735446,28.7192092 33.9492723,25.8467353 33.9492723,25.8467353 C33.9492723,25.8467353 31.1294118,25.1182871 29.0350625,26.4406765 Z" id="Path" fill="#3A3839" fill-rule="nonzero"></path>
                    <rect id="Rectangle" fill="#444242" fill-rule="nonzero" x="22.3733888" y="38.8191268" width="3.99168399" height="1.995842"></rect>
                    <rect id="Rectangle" fill="#3A3839" fill-rule="nonzero" x="24.3692308" y="38.8191268" width="1.995842" height="1.995842"></rect>
                </g>
                <g id="Alien-Copy-5" transform="translate(0.000000, 9.000000)">
                    <rect id="Rectangle" x="0" y="0" width="48" height="48"></rect>
                    <polygon id="Rectangle" fill="#64BD7C" fill-rule="nonzero" transform="translate(16.790094, 13.013725) rotate(-112.240828) translate(-16.790094, -13.013725) " points="10.4950767 11.4834563 23.0893256 11.466163 23.0851112 14.5439943 10.4908623 14.5612876"></polygon>
                    <polygon id="Rectangle" fill="#569366" fill-rule="nonzero" transform="translate(32.172222, 12.468596) rotate(-157.759172) translate(-32.172222, -12.468596) " points="30.6417813 6.29835064 33.7196126 6.29413622 33.702662 18.6388415 30.6248307 18.6430559"></polygon>
                    <circle id="Oval" fill="#64BD7C" fill-rule="nonzero" cx="14.1904366" cy="6.68607069" r="2.99376299"></circle>
                    <circle id="Oval" fill="#569366" fill-rule="nonzero" cx="34.5480249" cy="6.68607069" r="2.99376299"></circle>
                    <path d="M24.3692308,14.8690229 C16.2123942,14.8690229 9.6,21.3943955 9.6,29.4438851 C9.6,37.4933747 20.885874,48 24.3692308,48 C27.8525876,48 39.1384615,37.4933747 39.1384615,29.4439711 C39.1384615,21.3944815 32.5260673,14.8690229 24.3692308,14.8690229 Z" id="Path" fill="#64BD7C" fill-rule="nonzero"></path>
                    <path d="M24.3692308,14.8690229 L24.3692308,48 C27.8525876,48 39.1384615,37.4933747 39.1384615,29.4439711 C39.1384615,21.3944815 32.5260673,14.8690229 24.3692308,14.8690229 Z" id="Path" fill="#569366" fill-rule="nonzero"></path>
                    <path d="M19.7033991,26.4406951 C17.6091371,25.1182442 14.7891892,25.8467658 14.7891892,25.8467658 C14.7891892,25.8467658 15.3648296,28.7193582 17.4591789,30.0416333 C19.5534409,31.3640843 22.3733888,30.6355626 22.3733888,30.6355626 C22.3733888,30.6355626 21.7976611,27.7631461 19.7033991,26.4406951 Z" id="Path" fill="#444242" fill-rule="nonzero"></path>
                    <path d="M29.0350625,26.4406765 C26.9408005,27.7631538 26.3650728,30.6356276 26.3650728,30.6356276 C26.3650728,30.6356276 29.1849333,31.363988 31.2792827,30.0416865 C33.3735446,28.7192092 33.9492723,25.8467353 33.9492723,25.8467353 C33.9492723,25.8467353 31.1294118,25.1182871 29.0350625,26.4406765 Z" id="Path" fill="#3A3839" fill-rule="nonzero"></path>
                    <rect id="Rectangle" fill="#444242" fill-rule="nonzero" x="22.3733888" y="38.8191268" width="3.99168399" height="1.995842"></rect>
                    <rect id="Rectangle" fill="#3A3839" fill-rule="nonzero" x="24.3692308" y="38.8191268" width="1.995842" height="1.995842"></rect>
                </g>
                <g id="Alien-Copy-4" transform="translate(24.000000, 0.000000)">
                    <rect id="Rectangle" x="0" y="0" width="65" height="65"></rect>
                    <polygon id="Rectangle" fill="#BCE8F7" fill-rule="nonzero" transform="translate(22.736586, 17.622753) rotate(-112.240828) translate(-22.736586, -17.622753) " points="14.212083 15.5505137 31.2667951 15.5270957 31.2610881 19.6949922 14.206376 19.7184103"></polygon>
                    <polygon id="Rectangle" fill="#8EC1D6" fill-rule="nonzero" transform="translate(43.566550, 16.884557) rotate(-157.759172) translate(-43.566550, -16.884557) " points="41.4940789 8.52901649 45.6619755 8.52330946 45.6390214 25.2400978 41.4711249 25.2458049"></polygon>
                    <circle id="Oval" fill="#BCE8F7" fill-rule="nonzero" cx="19.2162162" cy="9.05405405" r="4.05405405"></circle>
                    <circle id="Oval" fill="#8EC1D6" fill-rule="nonzero" cx="46.7837838" cy="9.05405405" r="4.05405405"></circle>
                    <path d="M33,20.1351351 C21.9542838,20.1351351 13,28.9715773 13,39.8719278 C13,50.7722783 28.2829543,65 33,65 C37.7170457,65 53,50.7722783 53,39.8720442 C53,28.9716937 44.0457162,20.1351351 33,20.1351351 Z" id="Path" fill="#BCE8F7" fill-rule="nonzero"></path>
                    <path d="M33,20.1351351 L33,65 C37.7170457,65 53,50.7722783 53,39.8720442 C53,28.9716937 44.0457162,20.1351351 33,20.1351351 Z" id="Path" fill="#8EC1D6" fill-rule="nonzero"></path>
                    <path d="M26.6816862,35.805108 C23.8457065,34.014289 20.027027,35.0008287 20.027027,35.0008287 C20.027027,35.0008287 20.80654,38.8907976 23.6426381,40.6813785 C26.4786178,42.4721975 30.2972973,41.4856578 30.2972973,41.4856578 C30.2972973,41.4856578 29.517666,37.595927 26.6816862,35.805108 Z" id="Path" fill="#444242" fill-rule="nonzero"></path>
                    <path d="M39.3183138,35.8050828 C36.482334,37.5959374 35.7027027,41.4857457 35.7027027,41.4857457 C35.7027027,41.4857457 39.5212639,42.472067 42.3573619,40.6814504 C45.1933417,38.8905957 45.972973,35.0007874 45.972973,35.0007874 C45.972973,35.0007874 42.1544118,34.0143471 39.3183138,35.8050828 Z" id="Path" fill="#3A3839" fill-rule="nonzero"></path>
                    <rect id="Rectangle" fill="#444242" fill-rule="nonzero" x="30.2972973" y="52.5675676" width="5.40540541" height="2.7027027"></rect>
                    <rect id="Rectangle" fill="#3A3839" fill-rule="nonzero" x="33" y="52.5675676" width="2.7027027" height="2.7027027"></rect>
                </g>
            </g>
        </g>
    </g>
</svg>