<?xml version="1.0" encoding="UTF-8"?>
<svg width="65px" height="65px" viewBox="0 0 65 65" version="1.1" xmlns="http://www.w3.org/2000/svg" xmlns:xlink="http://www.w3.org/1999/xlink">
    <!-- Generator: Sketch 55.2 (78181) - https://sketchapp.com -->
    <title>dancing 2@1x</title>
    <desc>Created with Sketch.</desc>
    <g id="Registro" stroke="none" stroke-width="1" fill="none" fill-rule="evenodd">
        <g id="E2M--Registro-1--" transform="translate(-144.000000, -58.000000)" fill-rule="nonzero">
            <g id="Group-2" transform="translate(0.000000, 48.000000)">
                <g id="Group">
                    <g id="Overlays-/-Modal-/-Mobile-/-Example" transform="translate(16.000000, 0.000000)">
                        <g id="dancing-2" transform="translate(128.000000, 10.000000)">
                            <g id="dancing">
                                <path d="M24.6295484,16.5444926 L20.1564301,12.1470296 L27.6108817,3.90178647 C28.447914,2.97529598 28.4056989,1.56810782 27.5147097,0.691638478 L27.5068817,0.683942918 C26.5756344,-0.2294926 25.0673548,-0.227706131 24.1383441,0.687928118 C24.1152796,0.710739958 24.0926344,0.733964059 24.0704086,0.757600423 L15.6206882,9.8196723 C14.4073548,11.1211839 14.4516667,13.1312368 15.7213333,14.3798414 L21.4983656,19.8425899 L24.6295484,16.5444926 Z" id="Path" fill="#FDC9A6"></path>
                                <path d="M40.868086,17.1172622 L52.0329892,5.15946089 C52.9133548,4.20754757 54.412129,4.137463 55.3804194,5.00307611 C55.4080968,5.02781184 55.4352151,5.05323467 55.4616344,5.07920719 C56.3563978,5.95842495 56.3907849,7.37344609 55.539914,8.29375264 L44.4555269,20.140518 L40.868086,17.1172622 Z" id="Path" fill="#F6BB92"></path>
                                <polygon id="Path" fill="#F9E0A0" points="23.5112688 15.4451268 20.1564301 18.7432241 26.8661075 24.2400529 26.8661075 37.4324419 40.2854624 37.4324419 40.2854624 24.2400529 44.7585806 19.8425899 41.4037419 16.5444926 36.9306237 19.8425899 29.1026667 19.8425899"></polygon>
                                <path d="M32.4575054,18.7432241 C30.6046559,18.7432241 29.1026667,17.2666385 29.1026667,15.4451268 L28.9282151,8.84893235 L35.6378925,8.84893235 L35.8123441,15.4451268 C35.8123441,17.2665011 34.3103548,18.7432241 32.4575054,18.7432241 Z" id="Path" fill="#FDC9A6"></path>
                                <path d="M28.9282151,13.1441543 L31.1647742,9.84605708 L31.7574624,10.2858034 C34.0467204,11.9263319 37.2044624,11.7105814 39.2409892,9.77459831 L40.2854624,8.74669133 L37.3130753,6.54795983 C35.6099355,5.20824524 33.2699355,4.96446089 31.3190968,5.92352008 L30.0464946,6.55015856 L29.9771613,6.59523256 C28.100129,7.82542283 27.4485914,10.237019 28.4574194,12.2206871 L28.9282151,13.1441543 Z" id="Path" fill="#5B3726"></path>
                                <path d="M40.2854624,36.3330761 L41.0548387,40.117093 C41.278914,41.2170085 41.0668602,42.3595243 40.4621505,43.3107505 L35.8123441,50.6248309 L41.4037419,60.5191226 L41.4037419,62.7178541 L35.8123441,62.7178541 L35.8123441,60.5191226 L30.2209462,50.6248309 L32.4575054,44.0286364 L25.747828,50.6248309 L30.2209462,60.5191226 L30.2209462,62.7178541 L24.6295484,62.7178541 L24.6295484,60.5191226 L20.1564301,50.6248309 L26.8661075,39.6311734 L26.8661075,36.3330761 L40.2854624,36.3330761 Z" id="Path" fill="#4799CF"></path>
                                <g id="Group" transform="translate(21.247312, 60.465116)" fill="#1F6C8C">
                                    <path d="M8.97363441,4.45146934 L0.0273978495,4.45146934 L0.0273978495,3.35210359 C0.0273978495,1.53059197 1.5293871,0.0540063425 3.38223656,0.0540063425 L3.38223656,0.0540063425 L8.97363441,0.0540063425 L8.97363441,4.45146934 Z" id="Path"></path>
                                    <path d="M20.1564301,4.45146934 L11.2101935,4.45146934 L11.2101935,3.35210359 C11.2101935,1.53059197 12.7121828,0.0540063425 14.5650323,0.0540063425 L14.5650323,0.0540063425 L20.1564301,0.0540063425 L20.1564301,4.45146934 Z" id="Path"></path>
                                </g>
                                <g id="Group" transform="translate(0.000000, 17.589852)" fill="#FBB540">
                                    <polygon id="Path" points="8.65380645 36.0186575 6.73707527 40.7305391 4.82034409 36.0186575 0.0273978495 34.1343446 4.82034409 32.2500317 6.73707527 27.5381501 8.65380645 32.2500317 13.4467527 34.1343446"></polygon>
                                    <polygon id="Path" points="60.0946667 8.53451374 58.1779355 13.2463953 56.2612043 8.53451374 51.4682581 6.65020085 56.2612043 4.76588795 58.1779355 0.0540063425 60.0946667 4.76588795 64.8876129 6.65020085"></polygon>
                                </g>
                                <g id="Group" transform="translate(6.709677, 23.086681)" fill="#EA9D2D">
                                    <polygon id="Path" points="51.4682581 29.7368816 53.7048172 29.7368816 53.7048172 31.9356131 51.4682581 31.9356131"></polygon>
                                    <polygon id="Path" points="51.4682581 36.3330761 53.7048172 36.3330761 53.7048172 38.5318076 51.4682581 38.5318076"></polygon>
                                    <polygon id="Path" points="54.8230968 33.0349789 57.0596559 33.0349789 57.0596559 35.2337104 54.8230968 35.2337104"></polygon>
                                    <polygon id="Path" points="48.1134194 33.0349789 50.3499785 33.0349789 50.3499785 35.2337104 48.1134194 35.2337104"></polygon>
                                    <polygon id="Path" points="2.26395699 0.0540063425 4.50051613 0.0540063425 4.50051613 2.25273784 2.26395699 2.25273784"></polygon>
                                    <polygon id="Path" points="2.26395699 4.45146934 4.50051613 4.45146934 4.50051613 6.65020085 2.26395699 6.65020085"></polygon>
                                    <polygon id="Path" points="4.50051613 2.25273784 6.73707527 2.25273784 6.73707527 4.45146934 4.50051613 4.45146934"></polygon>
                                    <polygon id="Path" points="0.0273978495 2.25273784 2.26395699 2.25273784 2.26395699 4.45146934 0.0273978495 4.45146934"></polygon>
                                </g>
                                <g id="Group" transform="translate(1.118280, 7.695560)" fill="#F9E0A0">
                                    <path d="M44.7585806,37.4324419 C44.1410108,37.4323044 43.6404409,36.9400634 43.6405806,36.3328013 C43.6405806,36.0413319 43.7584194,35.7619556 43.967957,35.5558245 L45.4138925,34.1343446 L43.967957,32.7128647 C43.5388172,32.2761416 43.5511183,31.5802431 43.9953548,31.1583615 C44.4286882,30.7467865 45.115871,30.7467865 45.5492043,31.1583615 L47.7857634,33.357093 C48.2223118,33.7863953 48.2223118,34.4822939 47.7857634,34.9115962 L45.5492043,37.1103277 C45.3395269,37.3164588 45.0552043,37.4323044 44.7585806,37.4324419 Z" id="Path"></path>
                                    <path d="M50.3499785,37.4324419 C49.7324086,37.4323044 49.2318387,36.9400634 49.2319785,36.3328013 C49.2319785,36.0413319 49.3498172,35.7619556 49.5593548,35.5558245 L51.0052903,34.1343446 L49.5593548,32.7128647 C49.1302151,32.2761416 49.1425161,31.5802431 49.5867527,31.1583615 C50.020086,30.7467865 50.7072688,30.7467865 51.1406022,31.1583615 L53.3771613,33.357093 C53.8137097,33.7863953 53.8137097,34.4822939 53.3771613,34.9115962 L51.1406022,37.1103277 C50.9309247,37.3164588 50.6466022,37.4323044 50.3499785,37.4324419 Z" id="Path"></path>
                                    <path d="M8.97363441,6.65020085 C8.67701075,6.65020085 8.39268817,6.53421776 8.18301075,6.32808668 L5.94645161,4.12935518 C5.50990323,3.70005285 5.50990323,3.00415433 5.94645161,2.57485201 L8.18301075,0.376120507 C8.62724731,-0.0456236786 9.33525806,-0.0335306554 9.76425806,0.403192389 C10.1827742,0.829196617 10.1827742,1.50461945 9.76425806,1.93062368 L8.31832258,3.35210359 L9.76425806,4.77358351 C10.2009462,5.20302326 10.2008065,5.8990592 9.76397849,6.32836152 C9.55444086,6.53435518 9.27011828,6.65006342 8.97363441,6.65020085 Z" id="Path"></path>
                                    <path d="M3.38223656,6.65020085 C3.0856129,6.65020085 2.80129032,6.53421776 2.5916129,6.32808668 L0.355053763,4.12935518 C-0.0814946237,3.70005285 -0.0814946237,3.00415433 0.355053763,2.57485201 L2.5916129,0.376120507 C3.03584946,-0.0456236786 3.74386022,-0.0335306554 4.17286022,0.403192389 C4.59137634,0.829196617 4.59137634,1.50461945 4.17286022,1.93062368 L2.72692473,3.35210359 L4.17286022,4.77358351 C4.60954839,5.20302326 4.6094086,5.8990592 4.17258065,6.32836152 C3.96304301,6.53435518 3.67872043,6.65006342 3.38223656,6.65020085 Z" id="Path"></path>
                                </g>
                                <path d="M36.9306237,19.8425899 L29.1026667,19.8425899 L23.5112688,15.4451268 L20.1564301,18.7432241 L26.8661075,24.2400529 L26.8661075,36.3330761 L34.0342796,36.3330761 C38.3385376,29.9358668 39.7028387,21.3619133 40.1143656,17.495444 L36.9306237,19.8425899 Z" id="Path" fill="#F7E4BA"></path>
                                <path d="M34.0342796,36.3330761 L26.8661075,36.3330761 L26.8661075,39.6311734 L24.4405591,43.6053805 C28.4424624,42.4294715 31.8600645,39.8389535 34.0342796,36.3330761 Z" id="Path" fill="#6CBAE5"></path>
                            </g>
                        </g>
                    </g>
                </g>
            </g>
        </g>
    </g>
</svg>