<?xml version="1.0" encoding="UTF-8"?>
<svg width="65px" height="65px" viewBox="0 0 65 65" version="1.1" xmlns="http://www.w3.org/2000/svg" xmlns:xlink="http://www.w3.org/1999/xlink">
    <!-- Generator: Sketch 55.2 (78181) - https://sketchapp.com -->
    <title>dish@1x</title>
    <desc>Created with Sketch.</desc>
    <g id="Registro" stroke="none" stroke-width="1" fill="none" fill-rule="evenodd">
        <g id="E2M-Registro-2" transform="translate(-144.000000, -58.000000)" fill-rule="nonzero">
            <g id="Group-2" transform="translate(0.000000, 48.000000)">
                <g id="Group">
                    <g id="Overlays-/-Modal-/-Mobile-/-Example" transform="translate(16.000000, 0.000000)">
                        <g id="dish-2" transform="translate(128.000000, 10.000000)">
                            <g id="dish">
                                <path d="M65,32.5 C65,50.4490924 50.4490924,65 32.5,65 C14.5509076,65 0,50.4490924 0,32.5 C0,14.5509076 14.5509076,0 32.5,0 C50.4490924,0 65,14.5509076 65,32.5 Z" id="Path" fill="#00B0CA"></path>
                                <path d="M53.7931034,32.5 C53.7931034,44.2601277 44.2601277,53.7931034 32.5,53.7931034 C20.7398723,53.7931034 11.2068966,44.2601277 11.2068966,32.5 C11.2068966,20.7398723 20.7398723,11.2068966 32.5,11.2068966 C44.2601277,11.2068966 53.7931034,20.7398723 53.7931034,32.5 Z" id="Path" fill="#AFAFAF"></path>
                                <path d="M53.4959674,50.4310359 C53.0653119,50.4304873 52.6735081,50.1831476 52.4874563,49.7946272 C52.3014042,49.4066541 52.3539365,48.9459019 52.6231648,48.6099138 C53.1753014,47.920427 53.6924165,47.2035797 54.171774,46.4615604 C54.5143286,45.9592201 55.1945127,45.8213227 55.7056085,46.1512915 C56.2161571,46.4807129 56.371018,47.1576138 56.0547296,47.6763706 C55.5343313,48.4824135 54.9734391,49.261643 54.3736951,50.0107759 C54.1602826,50.277268 53.8374276,50.4315817 53.4959674,50.4310359 L53.4959674,50.4310359 Z" id="Path" fill="#D6D6D6"></path>
                                <path d="M57.4408169,43.7068966 C57.0687129,43.7063494 56.7206864,43.5213917 56.5127458,43.2122171 C56.3042581,42.9030425 56.2637645,42.5112389 56.4033034,42.1659483 C58.7519364,36.3310294 58.8964003,29.8410981 56.8087874,23.9076811 C56.6030358,23.3238063 56.9089272,22.6835685 57.4922548,22.4778168 C58.0761298,22.271518 58.7163675,22.5774095 58.9226664,23.1612844 C61.1919534,29.6101748 61.0343564,36.6648286 58.479972,43.0064655 C58.3086948,43.4300075 57.8977387,43.7068966 57.4408169,43.7068966 L57.4408169,43.7068966 Z" id="Path" fill="#D6D6D6"></path>
                                <path d="M15.6896552,11.2068966 C12.5951727,11.2068966 10.0862069,13.7158624 10.0862069,16.8103448 L10.0862069,21.2931034 C10.0883957,23.5191608 11.4077233,25.5329001 13.4482759,26.4237608 L13.4482759,53.7931034 C13.4482759,55.0308965 14.4518621,56.0344828 15.6896552,56.0344828 C16.9274482,56.0344828 17.9310345,55.0308965 17.9310345,53.7931034 L17.9310345,26.4237608 C19.971587,25.5329001 21.2909146,23.5191608 21.2931034,21.2931034 L21.2931034,16.8103448 C21.2931034,13.7158624 18.7841376,11.2068966 15.6896552,11.2068966 Z" id="Path" fill="#C5C5C5"></path>
                                <path d="M16.8103448,11.2068966 C13.7158624,11.2068966 11.2068966,13.7158624 11.2068966,16.8103448 L11.2068966,21.2931034 C11.2090854,23.5191608 12.528413,25.5329001 14.5689655,26.4237608 C14.5689655,31.2388949 14.5689655,34.8502455 14.5689655,37.2578125 C14.5689655,40.9323216 14.5689655,46.4440852 14.5689655,53.7931034 C14.5689655,55.0308965 15.5725518,56.0344828 16.8103448,56.0344828 C18.0481379,56.0344828 19.0517241,55.0308965 19.0517241,53.7931034 L19.0517241,26.4237608 C21.0922767,25.5329001 22.4116043,23.5191608 22.4137931,21.2931034 L22.4137931,16.8103448 C22.4137931,13.7158624 19.9048273,11.2068966 16.8103448,11.2068966 Z" id="Path" fill="#F4F4F4"></path>
                                <path d="M15.6896552,19.0517241 L13.4482759,19.0517241 L13.4482759,16.8103448 C13.4482759,14.9536554 14.9536554,13.4482759 16.8103448,13.4482759 L16.8103448,15.6896552 C16.1914483,15.6896552 15.6896552,16.1914483 15.6896552,16.8103448 L15.6896552,19.0517241 Z" id="Path" fill="#F9F9F9"></path>
                                <path d="M45.9482759,23.5344828 C45.3293793,23.5344828 44.8275862,23.0326896 44.8275862,22.4137931 L44.8275862,11.2068966 C44.8275862,10.588 45.3293793,10.0862069 45.9482759,10.0862069 C46.5671724,10.0862069 47.0689655,10.588 47.0689655,11.2068966 L47.0689655,22.4137931 C47.0689655,23.0326896 46.5671724,23.5344828 45.9482759,23.5344828 Z" id="Path" fill="#DBDBDB"></path>
                                <path d="M47.0689655,23.5344828 C46.450069,23.5344828 45.9482759,23.0326896 45.9482759,22.4137931 L45.9482759,11.2068966 C45.9482759,10.588 46.450069,10.0862069 47.0689655,10.0862069 C47.687862,10.0862069 48.1896552,10.588 48.1896552,11.2068966 L48.1896552,22.4137931 C48.1896552,23.0326896 47.687862,23.5344828 47.0689655,23.5344828 Z" id="Path" fill="#F4F4F4"></path>
                                <polygon id="Path" fill="#F9F9F9" points="13.4482759 21.2931034 15.6896552 21.2931034 15.6896552 23.5344828 13.4482759 23.5344828"></polygon>
                                <path d="M51.5517241,10.0862069 C50.9328276,10.0862069 50.4310345,10.588 50.4310345,11.2068966 L50.4310345,21.2931034 C50.4310345,23.7686894 48.4238618,25.7758621 45.9482759,25.7758621 C43.4726899,25.7758621 41.4655172,23.7686894 41.4655172,21.2931034 L41.4655172,11.2068966 C41.4655172,10.588 40.9637241,10.0862069 40.3448276,10.0862069 C39.7259311,10.0862069 39.2241379,10.588 39.2241379,11.2068966 L39.2241379,21.2931034 C39.2274213,24.1396989 41.022823,26.6760254 43.7068966,27.6248906 L43.7068966,53.7931034 C43.7068966,55.0308965 44.7104828,56.0344828 45.9482759,56.0344828 C47.1860689,56.0344828 48.1896552,55.0308965 48.1896552,53.7931034 L48.1896552,27.6248906 C50.8737287,26.6760254 52.6691305,24.1396989 52.6724138,21.2931034 L52.6724138,11.2068966 C52.6724138,10.588 52.1706207,10.0862069 51.5517241,10.0862069 Z" id="Path" fill="#C5C5C5"></path>
                                <path d="M52.6724138,10.0862069 C52.0535173,10.0862069 51.5517241,10.588 51.5517241,11.2068966 L51.5517241,21.2931034 C51.5517241,23.7686894 49.5445515,25.7758621 47.0689655,25.7758621 C44.5933796,25.7758621 42.5862069,23.7686894 42.5862069,21.2931034 L42.5862069,11.2068966 C42.5862069,10.588 42.0844138,10.0862069 41.4655172,10.0862069 C40.8466207,10.0862069 40.3448276,10.588 40.3448276,11.2068966 L40.3448276,21.2931034 C40.3481109,24.1396989 42.1435126,26.6760254 44.8275862,27.6248906 L44.8275862,53.7931034 C44.8275862,55.0308965 45.8311725,56.0344828 47.0689655,56.0344828 C48.3067586,56.0344828 49.3103448,55.0308965 49.3103448,53.7931034 L49.3103448,27.6248906 C51.9944184,26.6760254 53.7898201,24.1396989 53.7931034,21.2931034 L53.7931034,11.2068966 C53.7931034,10.588 53.2913103,10.0862069 52.6724138,10.0862069 Z" id="Path" fill="#F4F4F4"></path>
                            </g>
                        </g>
                    </g>
                </g>
            </g>
        </g>
    </g>
</svg>